G04 Layer: BottomLayer*
G04 EasyEDA v6.3.22, 2020-04-05T15:57:41+08:00*
G04 26a83e50978f4d2e98ee8e0c0de4659f,084ec32517fd449a9a4c349b315ac0e1,10*
G04 Gerber Generator version 0.2*
G04 Scale: 100 percent, Rotated: No, Reflected: No *
G04 Dimensions in inches *
G04 leading zeros omitted , absolute positions ,2 integer and 4 decimal *
%FSLAX24Y24*%
%MOIN*%
G90*
G70D02*

%ADD10C,0.010000*%
%ADD12C,0.024000*%
%ADD13C,0.098400*%
%ADD14C,0.060000*%
%ADD15R,0.060000X0.060000*%

%LPD*%
G54D10*
G01X23309Y53151D02*
G01X23818Y52640D01*
G01X23818Y41642D01*
G01X34898Y30561D01*
G01X34898Y28432D01*
G01X39740Y23590D01*
G01X39740Y21077D01*
G01X40406Y20411D01*
G01X40406Y13557D01*
G01X44809Y9155D01*
G01X43772Y15251D02*
G01X43772Y20240D01*
G01X38784Y25228D01*
G01X38784Y27830D01*
G01X35101Y31513D01*
G01X35101Y34801D01*
G01X25400Y44501D01*
G01X25400Y51648D01*
G01X23309Y53740D01*
G01X23309Y54151D02*
G01X23309Y53740D01*
G01X90533Y14794D02*
G01X88460Y16865D01*
G01X88460Y25109D01*
G01X82548Y31019D01*
G01X82548Y39298D01*
G01X76483Y45365D01*
G01X76483Y46454D01*
G01X71715Y51221D01*
G01X71715Y52451D01*
G01X114909Y11101D02*
G01X111215Y14794D01*
G01X109239Y14794D01*
G01X115711Y52451D02*
G01X117286Y50876D01*
G01X117286Y14865D01*
G01X116022Y13601D01*
G01X115751Y13601D01*
G01X115497Y13348D01*
G01X115497Y12917D01*
G01X115858Y12557D01*
G01X116035Y12557D01*
G01X116343Y12248D01*
G01X116343Y11534D01*
G01X115909Y11101D01*
G01X114909Y12101D02*
G01X111842Y15167D01*
G01X108606Y15167D01*
G01X21309Y53151D02*
G01X21809Y53651D01*
G01X22469Y53651D01*
G01X22897Y54079D01*
G01X22897Y54532D01*
G01X22927Y54561D01*
G01X23709Y54561D01*
G01X23738Y54532D01*
G01X23738Y53538D01*
G01X30148Y47128D01*
G01X30148Y44432D01*
G01X42306Y32275D01*
G01X44789Y32275D01*
G01X44923Y32140D01*
G01X44923Y32123D01*
G01X51952Y25096D01*
G01X70135Y25096D01*
G01X80233Y15000D01*
G01X84285Y15000D01*
G01X89252Y54648D02*
G01X91134Y52767D01*
G01X91134Y52767D01*
G01X91134Y33767D01*
G01X94640Y30261D01*
G01X94640Y17530D01*
G01X99773Y12396D01*
G01X101718Y13032D02*
G01X101196Y12509D01*
G01X100505Y12509D01*
G01X99314Y13700D01*
G01X99314Y25544D01*
G01X99101Y25757D01*
G01X99101Y28161D01*
G01X99154Y28213D01*
G01X99154Y30538D01*
G01X98813Y30878D01*
G01X98813Y46569D01*
G01X90577Y54805D01*
G01X115909Y15101D02*
G01X115485Y15523D01*
G01X110415Y15523D01*
G01X109896Y16044D01*
G01X37992Y16909D02*
G01X37504Y17398D01*
G01X37402Y17398D01*
G01X36740Y18057D01*
G01X36740Y24871D01*
G01X27672Y33940D01*
G01X27672Y35017D01*
G01X26105Y36584D01*
G01X26105Y38013D01*
G01X23093Y41023D01*
G01X23093Y47628D01*
G01X19719Y51002D01*
G01X19719Y53398D01*
G01X19467Y53651D01*
G01X18809Y53651D01*
G01X18309Y54151D01*
G01X114909Y16101D02*
G01X110572Y16101D01*
G01X110254Y16419D01*
G01X38534Y16450D02*
G01X38122Y16450D01*
G01X36430Y18140D01*
G01X36430Y24865D01*
G01X27510Y33784D01*
G01X27510Y34951D01*
G01X22932Y39529D01*
G01X22932Y47527D01*
G01X17309Y53151D01*
G01X115909Y16101D02*
G01X115497Y16511D01*
G01X115497Y17348D01*
G01X115751Y17601D01*
G01X116061Y17601D01*
G01X116802Y18342D01*
G01X116802Y47480D01*
G01X112684Y51598D01*
G01X112684Y52776D01*
G01X115909Y17101D02*
G01X116964Y18155D01*
G01X116964Y47896D01*
G01X112927Y51934D01*
G01X115563Y18446D02*
G01X115481Y18528D01*
G01X115481Y22261D01*
G01X115819Y22601D01*
G01X116002Y22601D01*
G01X116319Y22917D01*
G01X116319Y42259D01*
G01X103205Y55375D01*
G01X114909Y19101D02*
G01X113777Y17969D01*
G01X111175Y17969D01*
G01X109156Y15951D01*
G01X14309Y53151D02*
G01X17902Y49557D01*
G01X17902Y37530D01*
G01X19877Y35555D01*
G01X19877Y34677D01*
G01X28382Y26171D01*
G01X29381Y26171D01*
G01X34967Y20586D01*
G01X34967Y19169D01*
G01X38221Y15913D01*
G01X59359Y40451D02*
G01X50164Y40451D01*
G01X43447Y47169D01*
G01X42110Y47169D01*
G01X34486Y54794D01*
G01X14952Y54794D01*
G01X14309Y54151D01*
G01X115909Y20101D02*
G01X116642Y20834D01*
G01X116642Y46221D01*
G01X110289Y52575D01*
G01X110289Y55053D01*
G01X115909Y22101D02*
G01X116481Y22673D01*
G01X116481Y46011D01*
G01X109867Y52625D01*
G01X109867Y55705D01*
G01X114909Y24101D02*
G01X111364Y27646D01*
G01X9309Y53151D02*
G01X10431Y52028D01*
G01X10431Y35371D01*
G01X10159Y35098D01*
G01X10159Y33048D01*
G01X7585Y33205D02*
G01X7585Y52875D01*
G01X7309Y53151D01*
G01X115909Y29101D02*
G01X107844Y37165D01*
G01X107844Y46363D01*
G01X107933Y46453D01*
G01X107933Y47159D01*
G01X103761Y51330D01*
G01X103409Y51330D01*
G01X61047Y47888D02*
G01X61047Y44059D01*
G01X61405Y43701D01*
G01X53547Y47888D02*
G01X53547Y43648D01*
G01X53214Y43315D01*
G01X27297Y47888D02*
G01X27297Y44223D01*
G01X27234Y44161D01*
G01X115909Y26101D02*
G01X115409Y26601D01*
G01X114225Y26601D01*
G01X112688Y28138D01*
G01X105447Y28138D01*
G01X7309Y54151D02*
G01X7794Y54636D01*
G01X11446Y54636D01*
G01X11809Y54273D01*
G01X11809Y54007D01*
G01X12189Y53626D01*
G01X12480Y53626D01*
G01X12809Y53296D01*
G01X12809Y37286D01*
G01X12927Y37167D01*
G01X12927Y35003D01*
G01X12848Y34925D01*
G01X12848Y28836D01*
G01X13469Y28215D01*
G01X13469Y28215D02*
G01X13547Y28138D01*
G01X13469Y28215D02*
G01X10623Y25367D01*
G01X10623Y20638D01*
G01X12647Y5638D02*
G01X12647Y12905D01*
G01X10393Y15159D01*
G01X10393Y35104D01*
G01X10757Y35469D01*
G01X10757Y53702D01*
G01X10309Y54151D01*
G01X106359Y5651D02*
G01X97009Y5651D01*
G01X78247Y5638D02*
G01X87647Y5638D01*
G01X106359Y5651D02*
G01X106359Y13480D01*
G01X114479Y21601D01*
G01X114996Y21601D01*
G01X115319Y21925D01*
G01X115319Y22511D01*
G01X115909Y23101D01*
G01X97009Y5651D02*
G01X95415Y7244D01*
G01X89252Y7244D01*
G01X87647Y5638D01*
G01X12597Y26051D02*
G01X12597Y23486D01*
G01X15447Y20638D01*
G01X6377Y30317D02*
G01X8571Y28123D01*
G01X8571Y26051D01*
G01X8309Y54151D02*
G01X7815Y53657D01*
G01X7815Y31757D01*
G01X6377Y30317D01*
G01X6377Y30317D02*
G01X4196Y28138D01*
G01X115909Y28101D02*
G01X115909Y27101D01*
G01X84797Y46888D02*
G01X84797Y35638D01*
G01X73547Y46888D02*
G01X70008Y46888D01*
G01X70008Y46888D02*
G01X66047Y46888D01*
G01X77297Y35638D02*
G01X70218Y35638D01*
G01X70008Y35848D01*
G01X70008Y46888D02*
G01X70008Y35848D01*
G01X70008Y35848D02*
G01X69797Y35638D01*
G01X115909Y28101D02*
G01X115409Y28601D01*
G01X114761Y28601D01*
G01X106847Y36515D01*
G01X103547Y35638D02*
G01X105969Y35638D01*
G01X106847Y36515D01*
G01X106847Y36515D02*
G01X107297Y36965D01*
G01X107297Y46888D01*
G01X54797Y35638D02*
G01X47297Y35638D01*
G01X17297Y46888D02*
G01X17297Y35638D01*
G01X5309Y54151D02*
G01X4809Y53651D01*
G01X4211Y53651D01*
G01X2296Y51736D01*
G01X2296Y46888D01*
G01X39797Y46888D02*
G01X39797Y35638D01*
G01X24797Y46888D02*
G01X24797Y43138D01*
G01X32297Y35638D01*
G01X2296Y35638D02*
G01X2296Y46888D01*
G01X12297Y36638D02*
G01X12297Y32067D01*
G01X12334Y32030D01*
G01X19305Y35801D02*
G01X19690Y35415D01*
G01X19690Y32998D01*
G01X19602Y32907D01*
G01X16047Y29138D02*
G01X16047Y25477D01*
G01X16035Y25465D01*
G01X17947Y21638D02*
G01X17947Y18028D01*
G01X17934Y18015D01*
G01X23547Y29138D02*
G01X23547Y26159D01*
G01X23027Y25638D01*
G01X25447Y21638D02*
G01X25484Y21601D01*
G01X25484Y18011D01*
G01X42297Y36638D02*
G01X42521Y36413D01*
G01X42521Y33480D01*
G01X46047Y29138D02*
G01X46147Y29038D01*
G01X46147Y25605D01*
G01X47947Y21638D02*
G01X47947Y17463D01*
G01X47598Y17115D01*
G01X41373Y31992D02*
G01X41373Y29442D01*
G01X44981Y25832D01*
G01X44981Y25617D01*
G01X44981Y25617D02*
G01X46089Y24509D01*
G01X46089Y20071D01*
G01X46036Y20019D01*
G01X46036Y19161D01*
G01X47223Y17973D01*
G01X47223Y17973D02*
G01X47223Y17084D01*
G01X49802Y14507D01*
G01X49802Y12611D01*
G01X46109Y8917D01*
G01X44227Y8917D01*
G01X43126Y10017D01*
G01X114909Y22101D02*
G01X111597Y22101D01*
G01X106468Y16973D01*
G01X42872Y35319D02*
G01X47259Y39707D01*
G01X47259Y42742D01*
G01X31047Y29138D02*
G01X31047Y26123D01*
G01X30622Y25698D01*
G01X32947Y21638D02*
G01X33168Y21415D01*
G01X33168Y18013D01*
G01X29668Y17936D02*
G01X29803Y17802D01*
G01X29803Y12480D01*
G01X28534Y11209D01*
G01X28534Y10519D01*
G01X29668Y17936D02*
G01X29460Y18146D01*
G01X29460Y25738D01*
G01X31502Y24909D02*
G01X31502Y28186D01*
G01X31672Y28357D01*
G01X31672Y29394D01*
G01X29002Y32065D01*
G01X28897Y32065D01*
G01X40447Y21638D02*
G01X40888Y21196D01*
G01X40888Y17165D01*
G01X55447Y21638D02*
G01X55775Y21309D01*
G01X55775Y17886D01*
G01X53547Y29138D02*
G01X53547Y25871D01*
G01X53364Y25688D01*
G01X64797Y36638D02*
G01X64854Y36580D01*
G01X64854Y32907D01*
G01X61047Y29138D02*
G01X61047Y25725D01*
G01X60754Y25432D01*
G01X62947Y21638D02*
G01X62947Y18034D01*
G01X62884Y17971D01*
G01X38547Y29138D02*
G01X39069Y28615D01*
G01X39069Y25436D01*
G01X70447Y21638D02*
G01X70447Y18034D01*
G01X70384Y17971D01*
G01X68547Y29138D02*
G01X68547Y26038D01*
G01X68871Y25713D01*
G01X76047Y29138D02*
G01X76084Y29101D01*
G01X76084Y25471D01*
G01X83547Y29138D02*
G01X83547Y26163D01*
G01X84104Y25607D01*
G01X77947Y21638D02*
G01X78102Y21482D01*
G01X78102Y18169D01*
G01X67617Y25698D02*
G01X64034Y29280D01*
G01X64034Y31988D01*
G01X15309Y53151D02*
G01X15719Y53561D01*
G01X16327Y53561D01*
G01X16889Y54125D01*
G01X16889Y54342D01*
G01X17147Y54601D01*
G01X20493Y54601D01*
G01X20897Y54196D01*
G01X20897Y51488D01*
G01X21268Y51117D01*
G01X64034Y31988D02*
G01X64034Y32553D01*
G01X64693Y33211D01*
G01X64693Y35544D01*
G01X62911Y37325D01*
G01X62911Y51117D01*
G01X114909Y18101D02*
G01X114617Y17809D01*
G01X111310Y17809D01*
G01X109452Y15950D01*
G01X109452Y15559D01*
G01X109371Y15478D01*
G01X69746Y13376D02*
G01X69550Y13573D01*
G01X69550Y17971D01*
G01X69550Y17971D02*
G01X68550Y18971D01*
G01X68550Y23815D01*
G01X67752Y24613D01*
G01X71348Y31982D02*
G01X71348Y33215D01*
G01X69160Y35405D01*
G01X69160Y42863D01*
G01X69610Y43315D01*
G01X71348Y31982D02*
G01X71348Y29467D01*
G01X75165Y25648D01*
G01X75165Y25459D01*
G01X114909Y17101D02*
G01X111546Y17101D01*
G01X111039Y16594D01*
G01X77539Y17165D02*
G01X77539Y15323D01*
G01X77539Y15323D02*
G01X77539Y15157D01*
G01X73326Y10944D01*
G01X73326Y10411D01*
G01X76222Y20332D02*
G01X76222Y24403D01*
G01X75165Y25459D01*
G01X81697Y14138D02*
G01X81697Y10530D01*
G01X81747Y10478D01*
G01X89197Y14138D02*
G01X89197Y10667D01*
G01X89550Y10313D01*
G01X90147Y6638D02*
G01X90147Y2975D01*
G01X90134Y2961D01*
G01X92947Y21638D02*
G01X92947Y17927D01*
G01X92934Y17913D01*
G01X85447Y21638D02*
G01X85786Y21298D01*
G01X85786Y17836D01*
G01X71433Y53565D02*
G01X71433Y50902D01*
G01X76322Y46013D01*
G01X76322Y44126D01*
G01X76322Y44126D02*
G01X77915Y42532D01*
G01X77915Y35021D01*
G01X77860Y34967D01*
G01X77860Y34040D01*
G01X78648Y33251D01*
G01X78648Y33251D02*
G01X78648Y25771D01*
G01X79656Y24765D01*
G01X79656Y24765D02*
G01X79656Y23059D01*
G01X84754Y17961D01*
G01X84754Y17919D01*
G01X84754Y17919D02*
G01X84858Y17815D01*
G01X84858Y10673D01*
G01X107947Y29138D02*
G01X105502Y29138D01*
G01X104794Y28430D01*
G01X104794Y27919D01*
G01X107602Y25113D01*
G01X107659Y25113D01*
G01X98547Y29138D02*
G01X98547Y25963D01*
G01X98902Y25607D01*
G01X91047Y29138D02*
G01X91559Y28626D01*
G01X91559Y25515D01*
G01X115909Y13101D02*
G01X116593Y12415D01*
G01X116593Y8407D01*
G01X105713Y17134D02*
G01X105713Y14242D01*
G01X103414Y11944D01*
G01X103414Y11346D01*
G01X102540Y10471D01*
G01X106418Y24551D02*
G01X104496Y26473D01*
G01X104496Y31073D01*
G01X105339Y31917D01*
G01X91908Y53828D02*
G01X91986Y53828D01*
G01X101714Y44100D01*
G01X101714Y36600D01*
G01X105339Y32976D01*
G01X105339Y31917D01*
G01X109729Y2065D02*
G01X115347Y7682D01*
G01X115347Y12663D01*
G01X114909Y13101D01*
G01X94034Y32030D02*
G01X98543Y36540D01*
G01X98543Y41651D01*
G01X92660Y31915D02*
G01X93980Y30594D01*
G01X93980Y21269D01*
G01X99847Y10467D02*
G01X99847Y10696D01*
G01X94480Y16065D01*
G01X94480Y20769D01*
G01X93980Y21269D01*
G01X92184Y17909D02*
G01X91019Y19073D01*
G01X91019Y20080D01*
G01X91076Y20136D01*
G01X91076Y24077D01*
G01X90560Y24592D01*
G01X90508Y42757D02*
G01X90434Y42682D01*
G01X90434Y32115D01*
G01X90434Y32115D02*
G01X90434Y28632D01*
G01X90965Y28100D01*
G01X90965Y24996D01*
G01X90560Y24592D01*
G01X19964Y52465D02*
G01X19964Y51017D01*
G01X23255Y47728D01*
G01X23255Y41171D01*
G01X26322Y38104D01*
G01X26322Y36636D01*
G01X27832Y35126D01*
G01X27832Y34469D01*
G01X30456Y31846D01*
G01X105914Y11765D02*
G01X104221Y10071D01*
G01X100022Y10071D01*
G01X99856Y10236D01*
G01X99752Y10236D01*
G01X94814Y15175D01*
G01X92184Y17909D02*
G01X94814Y15278D01*
G01X94814Y15175D01*
G01X94814Y15175D01*
G01X94814Y15175D02*
G01X89683Y10042D01*
G01X88931Y10042D01*
G01X88497Y10478D01*
G01X28282Y49715D02*
G01X31442Y49715D01*
G01X34704Y46454D01*
G01X35873Y46454D01*
G01X38364Y43963D01*
G01X38364Y43315D01*
G01X38010Y24594D02*
G01X36985Y23569D01*
G01X36985Y18140D01*
G01X37347Y17778D01*
G01X36268Y41342D02*
G01X36390Y41342D01*
G01X38364Y43315D01*
G01X37989Y25690D02*
G01X38497Y26198D01*
G01X38497Y27811D01*
G01X34393Y31915D01*
G01X34393Y32032D01*
G01X50884Y10457D02*
G01X50884Y11034D01*
G01X53550Y13701D01*
G01X53550Y17886D01*
G01X53550Y17886D02*
G01X53550Y24225D01*
G01X53211Y24563D01*
G01X44693Y32044D02*
G01X52173Y24563D01*
G01X53211Y24563D01*
G01X114909Y20101D02*
G01X113840Y20101D01*
G01X111942Y18201D01*
G01X59889Y17886D02*
G01X59890Y17886D01*
G01X58364Y10457D02*
G01X59115Y11209D01*
G01X59115Y12634D01*
G01X59889Y13409D01*
G01X59889Y17886D01*
G01X59889Y17886D02*
G01X59465Y18311D01*
G01X59465Y23546D01*
G01X60409Y24488D01*
G01X56919Y32115D02*
G01X57775Y32115D01*
G01X60582Y43288D02*
G01X60582Y34923D01*
G01X57775Y32115D01*
G01X57775Y32115D02*
G01X57775Y28040D01*
G01X59359Y26457D01*
G01X59359Y25688D01*
G01X15147Y6638D02*
G01X15147Y3005D01*
G01X15184Y2969D01*
G01X14996Y16451D02*
G01X14517Y15973D01*
G01X14517Y5678D01*
G01X14913Y5284D01*
G01X13797Y30851D02*
G01X13797Y40863D01*
G01X17019Y44086D01*
G01X24497Y6638D02*
G01X24534Y6601D01*
G01X24534Y2094D01*
G01X24693Y18050D02*
G01X24731Y18013D01*
G01X24847Y18013D01*
G01X24847Y18013D01*
G01X24693Y18050D02*
G01X21055Y14411D01*
G01X21055Y13150D01*
G01X21592Y12613D01*
G01X21592Y11123D01*
G01X21173Y10705D01*
G01X21173Y10465D01*
G01X21173Y10465D02*
G01X21173Y5590D01*
G01X23710Y3055D01*
G01X23710Y3017D01*
G01X24693Y18050D02*
G01X23551Y19192D01*
G01X23551Y24763D01*
G01X22496Y25819D01*
G01X22496Y25819D02*
G01X19034Y29280D01*
G01X19034Y31990D01*
G01X19034Y31990D02*
G01X17900Y33125D01*
G01X17900Y36800D01*
G01X17600Y37100D01*
G01X17600Y41651D01*
G01X115909Y24101D02*
G01X115409Y23601D01*
G01X111210Y23601D01*
G01X100747Y13138D01*
G01X71697Y13138D02*
G01X67979Y13138D01*
G01X66047Y11207D01*
G01X65363Y11207D01*
G01X64197Y12371D01*
G01X64197Y13138D01*
G01X26697Y13138D02*
G01X26697Y12015D01*
G01X28425Y10288D01*
G01X30410Y10288D01*
G01X33260Y13138D01*
G01X34197Y13138D01*
G01X9309Y54151D02*
G01X8802Y53644D01*
G01X8802Y20528D01*
G01X6997Y18723D01*
G01X6997Y13138D01*
G01X49197Y13138D02*
G01X41697Y13138D01*
G01X103247Y14138D02*
G01X103247Y11776D01*
G01X102289Y10819D01*
G01X102289Y10336D01*
G01X102385Y10240D01*
G01X103039Y10240D01*
G01X103265Y10465D01*
G01X4350Y32850D02*
G01X4350Y33926D01*
G01X5418Y34994D01*
G01X5418Y44282D01*
G01X5014Y44686D01*
G01X4455Y44686D02*
G01X5014Y44686D01*
G01X5014Y44686D02*
G01X5014Y47088D01*
G01X5406Y47480D01*
G01X5406Y52053D01*
G01X4309Y53151D01*
G54D13*
G01X103246Y14138D03*
G01X100746Y13138D03*
G01X29196Y14138D03*
G01X26696Y13138D03*
G01X49796Y36638D03*
G01X47296Y35638D03*
G01X64796Y36638D03*
G01X62296Y35638D03*
G01X105146Y21638D03*
G01X102646Y20638D03*
G01X9496Y14138D03*
G01X6996Y13138D03*
G01X52609Y6601D03*
G01X50109Y5601D03*
G01X108859Y6651D03*
G01X106359Y5651D03*
G01X90146Y6638D03*
G01X87646Y5638D03*
G01X80746Y6638D03*
G01X78246Y5638D03*
G01X24496Y6638D03*
G01X21996Y5638D03*
G01X15146Y6638D03*
G01X12646Y5638D03*
G01X5746Y6638D03*
G01X3246Y5638D03*
G01X89196Y14138D03*
G01X86696Y13138D03*
G01X81696Y14138D03*
G01X79196Y13138D03*
G01X74196Y14138D03*
G01X71696Y13138D03*
G01X66696Y14138D03*
G01X64196Y13138D03*
G01X59196Y14138D03*
G01X56696Y13138D03*
G01X51696Y14138D03*
G01X49196Y13138D03*
G01X44196Y14138D03*
G01X41696Y13138D03*
G01X36696Y14138D03*
G01X34196Y13138D03*
G01X21696Y14138D03*
G01X19196Y13138D03*
G01X92946Y21638D03*
G01X90446Y20638D03*
G01X85446Y21638D03*
G01X82946Y20638D03*
G01X77946Y21638D03*
G01X75446Y20638D03*
G01X70446Y21638D03*
G01X67946Y20638D03*
G01X62946Y21638D03*
G01X60446Y20638D03*
G01X55446Y21638D03*
G01X52946Y20638D03*
G01X47946Y21638D03*
G01X45446Y20638D03*
G01X40446Y21638D03*
G01X37946Y20638D03*
G01X32946Y21638D03*
G01X30446Y20638D03*
G01X25446Y21638D03*
G01X22946Y20638D03*
G01X17946Y21638D03*
G01X15446Y20638D03*
G01X6696Y29138D03*
G01X4196Y28138D03*
G01X107946Y29138D03*
G01X105446Y28138D03*
G01X98546Y29138D03*
G01X96046Y28138D03*
G01X91046Y29138D03*
G01X88546Y28138D03*
G01X83546Y29138D03*
G01X81046Y28138D03*
G01X76046Y29138D03*
G01X73546Y28138D03*
G01X68546Y29138D03*
G01X66046Y28138D03*
G01X61046Y29138D03*
G01X58546Y28138D03*
G01X53546Y29138D03*
G01X51046Y28138D03*
G01X46046Y29138D03*
G01X43546Y28138D03*
G01X38546Y29138D03*
G01X36046Y28138D03*
G01X31046Y29138D03*
G01X28546Y28138D03*
G01X23546Y29138D03*
G01X21046Y28138D03*
G01X16046Y29138D03*
G01X13546Y28138D03*
G01X7646Y21638D03*
G01X5146Y20638D03*
G01X106046Y36638D03*
G01X103546Y35638D03*
G01X94796Y36638D03*
G01X92296Y35638D03*
G01X87296Y36638D03*
G01X84796Y35638D03*
G01X79796Y36638D03*
G01X77296Y35638D03*
G01X72296Y36638D03*
G01X69796Y35638D03*
G01X57296Y36638D03*
G01X54796Y35638D03*
G01X42296Y36638D03*
G01X39796Y35638D03*
G01X34796Y36638D03*
G01X32296Y35638D03*
G01X27296Y36638D03*
G01X24796Y35638D03*
G01X19796Y36638D03*
G01X17296Y35638D03*
G01X12296Y36638D03*
G01X9796Y35638D03*
G01X4796Y36638D03*
G01X2296Y35638D03*
G01X4796Y47888D03*
G01X2296Y46888D03*
G01X19796Y47888D03*
G01X17296Y46888D03*
G01X27296Y47888D03*
G01X24796Y46888D03*
G01X34796Y47888D03*
G01X32296Y46888D03*
G01X42296Y47888D03*
G01X39796Y46888D03*
G01X53546Y47888D03*
G01X51046Y46888D03*
G01X68546Y47888D03*
G01X66046Y46888D03*
G01X87296Y47888D03*
G01X84796Y46888D03*
G01X94796Y47888D03*
G01X92296Y46888D03*
G01X102296Y47888D03*
G01X99796Y46888D03*
G01X109796Y47888D03*
G01X107296Y46888D03*
G01X76046Y47888D03*
G01X73546Y46888D03*
G01X61046Y47888D03*
G01X58546Y46888D03*
G54D14*
G01X4309Y54151D03*
G01X4309Y53151D03*
G01X5309Y54151D03*
G01X5309Y53151D03*
G01X6309Y54151D03*
G01X6309Y53151D03*
G01X7309Y54151D03*
G01X7309Y53151D03*
G01X8309Y54151D03*
G01X8309Y53151D03*
G01X9309Y54151D03*
G01X9309Y53151D03*
G01X10309Y54151D03*
G01X10309Y53151D03*
G01X11309Y54151D03*
G01X11309Y53151D03*
G01X12309Y54151D03*
G01X12309Y53151D03*
G01X13309Y54151D03*
G01X13309Y53151D03*
G01X14309Y54151D03*
G01X14309Y53151D03*
G01X15309Y54151D03*
G01X15309Y53151D03*
G01X16309Y54151D03*
G01X16309Y53151D03*
G01X17309Y54151D03*
G01X17309Y53151D03*
G01X18309Y54151D03*
G01X18309Y53151D03*
G01X19309Y54151D03*
G01X19309Y53151D03*
G01X20309Y54151D03*
G01X20309Y53151D03*
G01X21309Y54151D03*
G01X21309Y53151D03*
G01X22309Y54151D03*
G01X22309Y53151D03*
G54D15*
G01X23309Y54151D03*
G54D14*
G01X23309Y53151D03*
G01X115909Y10101D03*
G01X114909Y10101D03*
G01X115909Y11101D03*
G01X114909Y11101D03*
G01X115909Y12101D03*
G01X114909Y12101D03*
G01X115909Y13101D03*
G01X114909Y13101D03*
G01X115909Y14101D03*
G01X114909Y14101D03*
G01X115909Y15101D03*
G01X114909Y15101D03*
G01X115909Y16101D03*
G01X114909Y16101D03*
G01X115909Y17101D03*
G01X114909Y17101D03*
G01X115909Y18101D03*
G01X114909Y18101D03*
G01X115909Y19101D03*
G01X114909Y19101D03*
G01X115909Y20101D03*
G01X114909Y20101D03*
G01X115909Y21101D03*
G01X114909Y21101D03*
G01X115909Y22101D03*
G01X114909Y22101D03*
G01X115909Y23101D03*
G01X114909Y23101D03*
G01X115909Y24101D03*
G01X114909Y24101D03*
G01X115909Y25101D03*
G01X114909Y25101D03*
G01X115909Y26101D03*
G01X114909Y26101D03*
G01X115909Y27101D03*
G01X114909Y27101D03*
G01X115909Y28101D03*
G01X114909Y28101D03*
G01X115909Y29101D03*
G01X114909Y29101D03*
G54D13*
G01X99509Y6651D03*
G01X97009Y5651D03*
G54D12*
G01X44809Y9155D03*
G01X43772Y15251D03*
G01X109239Y14794D03*
G01X90533Y14794D03*
G01X71716Y52451D03*
G01X115712Y52451D03*
G01X108606Y15167D03*
G01X84286Y15000D03*
G01X99774Y12396D03*
G01X89253Y54648D03*
G01X90578Y54805D03*
G01X101719Y13032D03*
G01X109896Y16044D03*
G01X37992Y16909D03*
G01X38534Y16450D03*
G01X110254Y16419D03*
G01X112684Y52776D03*
G01X112927Y51934D03*
G01X115563Y18446D03*
G01X103205Y55375D03*
G01X109157Y15951D03*
G01X38221Y15913D03*
G01X59359Y40451D03*
G01X110289Y55053D03*
G01X109867Y55705D03*
G01X111364Y27646D03*
G01X10159Y33048D03*
G01X7585Y33205D03*
G01X103409Y51330D03*
G01X61405Y43701D03*
G01X53214Y43315D03*
G01X27234Y44161D03*
G01X10624Y20638D03*
G01X8571Y26051D03*
G01X12598Y26051D03*
G01X12334Y32030D03*
G01X19305Y35801D03*
G01X19602Y32907D03*
G01X16036Y25465D03*
G01X17934Y18015D03*
G01X23028Y25638D03*
G01X25484Y18011D03*
G01X42521Y33480D03*
G01X46147Y25605D03*
G01X47599Y17115D03*
G01X41374Y31992D03*
G01X44982Y25617D03*
G01X47224Y17973D03*
G01X106469Y16973D03*
G01X43126Y10017D03*
G01X42872Y35319D03*
G01X47259Y42742D03*
G01X30622Y25698D03*
G01X33169Y18013D03*
G01X29460Y25738D03*
G01X29669Y17936D03*
G01X28534Y10519D03*
G01X31503Y24909D03*
G01X28897Y32065D03*
G01X40888Y17165D03*
G01X55775Y17886D03*
G01X53364Y25688D03*
G01X64854Y32907D03*
G01X60754Y25432D03*
G01X62884Y17971D03*
G01X39070Y25436D03*
G01X70384Y17971D03*
G01X68871Y25713D03*
G01X76084Y25471D03*
G01X84104Y25607D03*
G01X78103Y18169D03*
G01X64034Y31988D03*
G01X67617Y25698D03*
G01X69550Y17971D03*
G01X69746Y13376D03*
G01X21269Y51117D03*
G01X62912Y51117D03*
G01X109371Y15478D03*
G01X67752Y24613D03*
G01X71349Y31982D03*
G01X75166Y25459D03*
G01X77540Y17165D03*
G01X69611Y43315D03*
G01X73326Y10411D03*
G01X111040Y16594D03*
G01X77540Y15323D03*
G01X76223Y20332D03*
G01X81748Y10478D03*
G01X89550Y10313D03*
G01X90134Y2961D03*
G01X92934Y17913D03*
G01X85787Y17836D03*
G01X71433Y53565D03*
G01X76322Y44126D03*
G01X84754Y17919D03*
G01X78649Y33251D03*
G01X79656Y24765D03*
G01X84858Y10673D03*
G01X107659Y25113D03*
G01X98902Y25607D03*
G01X91559Y25515D03*
G01X116594Y8407D03*
G01X105713Y17134D03*
G01X102541Y10471D03*
G01X106419Y24551D03*
G01X105340Y31917D03*
G01X91908Y53828D03*
G01X109729Y2065D03*
G01X94034Y32030D03*
G01X98544Y41651D03*
G01X93980Y21269D03*
G01X92660Y31915D03*
G01X99848Y10467D03*
G01X90561Y24592D03*
G01X92184Y17909D03*
G01X19965Y52465D03*
G01X30456Y31846D03*
G01X90508Y42757D03*
G01X90434Y32115D03*
G01X105914Y11765D03*
G01X88497Y10478D03*
G01X38364Y43315D03*
G01X37347Y17778D03*
G01X38011Y24594D03*
G01X28283Y49715D03*
G01X37989Y25690D03*
G01X34394Y32032D03*
G01X36269Y41342D03*
G01X53550Y17886D03*
G01X50884Y10457D03*
G01X53212Y24563D03*
G01X44693Y32044D03*
G01X56920Y32115D03*
G01X59891Y17886D03*
G01X58365Y10457D03*
G01X60583Y43288D03*
G01X111942Y18201D03*
G01X60409Y24488D03*
G01X59359Y25688D03*
G01X15184Y2969D03*
G01X14913Y5284D03*
G01X14996Y16451D03*
G01X13797Y30851D03*
G01X17020Y44086D03*
G01X24534Y2094D03*
G01X22496Y25819D03*
G01X24848Y18013D03*
G01X21174Y10465D03*
G01X23710Y3017D03*
G01X19034Y31990D03*
G01X17600Y41651D03*
G01X103266Y10465D03*
G01X4455Y44686D03*
G01X4350Y32850D03*
M00*
M02*
