;Layer: Drill NPTH
;EasyEDA v6.3.22, 2020-04-05T15:57:41+08:00
;26a83e50978f4d2e98ee8e0c0de4659f,084ec32517fd449a9a4c349b315ac0e1,10
;Gerber Generator version 0.2
M48
INCH,LZ,00.0000
;Holesize 1 = 0.067 INCH
T01C0.067
;Holesize 2 = 0.157 INCH
T02C0.157
%
G05
G90
T01
X+100246Y+012138
X+104246Y+012138
X+026196Y+012138
X+030196Y+012138
X+046796Y+034638
X+050796Y+034638
X+061796Y+034638
X+065796Y+034638
X+102146Y+019638
X+106146Y+019638
X+006496Y+012138
X+010496Y+012138
X+049609Y+004601
X+053609Y+004601
X+105859Y+004651
X+109859Y+004651
X+087146Y+004638
X+091146Y+004638
X+077746Y+004638
X+081746Y+004638
X+021496Y+004638
X+025496Y+004638
X+012146Y+004638
X+016146Y+004638
X+002746Y+004638
X+006746Y+004638
X+086196Y+012138
X+090196Y+012138
X+078696Y+012138
X+082696Y+012138
X+071196Y+012138
X+075196Y+012138
X+063696Y+012138
X+067696Y+012138
X+056196Y+012138
X+060196Y+012138
X+048696Y+012138
X+052696Y+012138
X+041196Y+012138
X+045196Y+012138
X+033696Y+012138
X+037696Y+012138
X+018696Y+012138
X+022696Y+012138
X+089946Y+019638
X+093946Y+019638
X+082446Y+019638
X+086446Y+019638
X+074946Y+019638
X+078946Y+019638
X+067446Y+019638
X+071446Y+019638
X+059946Y+019638
X+063946Y+019638
X+052446Y+019638
X+056446Y+019638
X+044946Y+019638
X+048946Y+019638
X+037446Y+019638
X+041446Y+019638
X+029946Y+019638
X+033946Y+019638
X+022446Y+019638
X+026446Y+019638
X+014946Y+019638
X+018946Y+019638
X+003696Y+027138
X+007696Y+027138
X+104946Y+027138
X+108946Y+027138
X+095546Y+027138
X+099546Y+027138
X+088046Y+027138
X+092046Y+027138
X+080546Y+027138
X+084546Y+027138
X+073046Y+027138
X+077046Y+027138
X+065546Y+027138
X+069546Y+027138
X+058046Y+027138
X+062046Y+027138
X+050546Y+027138
X+054546Y+027138
X+043046Y+027138
X+047046Y+027138
X+035546Y+027138
X+039546Y+027138
X+028046Y+027138
X+032046Y+027138
X+020546Y+027138
X+024546Y+027138
X+013046Y+027138
X+017046Y+027138
X+004646Y+019638
X+008646Y+019638
X+103046Y+034638
X+107046Y+034638
X+091796Y+034638
X+095796Y+034638
X+084296Y+034638
X+088296Y+034638
X+076796Y+034638
X+080796Y+034638
X+069296Y+034638
X+073296Y+034638
X+054296Y+034638
X+058296Y+034638
X+039296Y+034638
X+043296Y+034638
X+031796Y+034638
X+035796Y+034638
X+024296Y+034638
X+028296Y+034638
X+016796Y+034638
X+020796Y+034638
X+009296Y+034638
X+013296Y+034638
X+001796Y+034638
X+005796Y+034638
X+001796Y+045888
X+005796Y+045888
X+016796Y+045888
X+020796Y+045888
X+024296Y+045888
X+028296Y+045888
X+031796Y+045888
X+035796Y+045888
X+039296Y+045888
X+043296Y+045888
X+050546Y+045888
X+054546Y+045888
X+065546Y+045888
X+069546Y+045888
X+084296Y+045888
X+088296Y+045888
X+091796Y+045888
X+095796Y+045888
X+099296Y+045888
X+103296Y+045888
X+106796Y+045888
X+110796Y+045888
X+073046Y+045888
X+077046Y+045888
X+058046Y+045888
X+062046Y+045888
X+096509Y+004651
X+100509Y+004651
T02
X+102246Y+012138
X+028196Y+012138
X+048796Y+034638
X+063796Y+034638
X+104146Y+019638
X+008496Y+012138
X+051609Y+004601
X+107859Y+004651
X+089146Y+004638
X+079746Y+004638
X+023496Y+004638
X+014146Y+004638
X+004746Y+004638
X+088196Y+012138
X+080696Y+012138
X+073196Y+012138
X+065696Y+012138
X+058196Y+012138
X+050696Y+012138
X+043196Y+012138
X+035696Y+012138
X+020696Y+012138
X+091946Y+019638
X+084446Y+019638
X+076946Y+019638
X+069446Y+019638
X+061946Y+019638
X+054446Y+019638
X+046946Y+019638
X+039446Y+019638
X+031946Y+019638
X+024446Y+019638
X+016946Y+019638
X+005696Y+027138
X+106946Y+027138
X+097546Y+027138
X+090046Y+027138
X+082546Y+027138
X+075046Y+027138
X+067546Y+027138
X+060046Y+027138
X+052546Y+027138
X+045046Y+027138
X+037546Y+027138
X+030046Y+027138
X+022546Y+027138
X+015046Y+027138
X+006646Y+019638
X+105046Y+034638
X+093796Y+034638
X+086296Y+034638
X+078796Y+034638
X+071296Y+034638
X+056296Y+034638
X+041296Y+034638
X+033796Y+034638
X+026296Y+034638
X+018796Y+034638
X+011296Y+034638
X+003796Y+034638
X+003796Y+045888
X+018796Y+045888
X+026296Y+045888
X+033796Y+045888
X+041296Y+045888
X+052546Y+045888
X+067546Y+045888
X+086296Y+045888
X+093796Y+045888
X+101296Y+045888
X+108796Y+045888
X+075046Y+045888
X+060046Y+045888
X+098509Y+004651
M30
