;Layer: Drill PTH
;EasyEDA v6.3.22, 2020-04-05T15:57:41+08:00
;26a83e50978f4d2e98ee8e0c0de4659f,084ec32517fd449a9a4c349b315ac0e1,10
;Gerber Generator version 0.2
M48
INCH,LZ,00.0000
;Holesize 1 = 0.012 INCH
T01C0.012
;Holesize 2 = 0.036 INCH
T02C0.036
;Holesize 3 = 0.043 INCH
T03C0.043
;Holesize 4 = 0.059 INCH
T04C0.059
%
G05
G90
T01
X+044809Y+009155
X+043772Y+015251
X+109239Y+014794
X+090533Y+014794
X+071716Y+052451
X+115712Y+052451
X+108606Y+015167
X+084286Y+015000
X+099774Y+012396
X+089253Y+054648
X+090578Y+054805
X+101719Y+013032
X+109896Y+016044
X+037992Y+016909
X+038534Y+016450
X+110254Y+016419
X+112684Y+052776
X+112927Y+051934
X+115563Y+018446
X+103205Y+055375
X+109157Y+015951
X+038221Y+015913
X+059359Y+040451
X+110289Y+055053
X+109867Y+055705
X+111364Y+027646
X+010159Y+033048
X+007585Y+033205
X+103409Y+051330
X+061405Y+043701
X+053214Y+043315
X+027234Y+044161
X+010624Y+020638
X+008571Y+026051
X+012598Y+026051
X+012334Y+032030
X+019305Y+035801
X+019602Y+032907
X+016036Y+025465
X+017934Y+018015
X+023028Y+025638
X+025484Y+018011
X+042521Y+033480
X+046147Y+025605
X+047599Y+017115
X+041374Y+031992
X+044982Y+025617
X+047224Y+017973
X+106469Y+016973
X+043126Y+010017
X+042872Y+035319
X+047259Y+042742
X+030622Y+025698
X+033169Y+018013
X+029460Y+025738
X+029669Y+017936
X+028534Y+010519
X+031503Y+024909
X+028897Y+032065
X+040888Y+017165
X+055775Y+017886
X+053364Y+025688
X+064854Y+032907
X+060754Y+025432
X+062884Y+017971
X+039070Y+025436
X+070384Y+017971
X+068871Y+025713
X+076084Y+025471
X+084104Y+025607
X+078103Y+018169
X+064034Y+031988
X+067617Y+025698
X+069550Y+017971
X+069746Y+013376
X+021269Y+051117
X+062912Y+051117
X+109371Y+015478
X+067752Y+024613
X+071349Y+031982
X+075166Y+025459
X+077540Y+017165
X+069611Y+043315
X+073326Y+010411
X+111040Y+016594
X+077540Y+015323
X+076223Y+020332
X+081748Y+010478
X+089550Y+010313
X+090134Y+002961
X+092934Y+017913
X+085787Y+017836
X+071433Y+053565
X+076322Y+044126
X+084754Y+017919
X+078649Y+033251
X+079656Y+024765
X+084858Y+010673
X+107659Y+025113
X+098902Y+025607
X+091559Y+025515
X+116594Y+008407
X+105713Y+017134
X+102541Y+010471
X+106419Y+024551
X+105340Y+031917
X+091908Y+053828
X+109729Y+002065
X+094034Y+032030
X+098544Y+041651
X+093980Y+021269
X+092660Y+031915
X+099848Y+010467
X+090561Y+024592
X+092184Y+017909
X+019965Y+052465
X+030456Y+031846
X+090508Y+042757
X+090434Y+032115
X+105914Y+011765
X+088497Y+010478
X+038364Y+043315
X+037347Y+017778
X+038011Y+024594
X+028283Y+049715
X+037989Y+025690
X+034394Y+032032
X+036269Y+041342
X+053550Y+017886
X+050884Y+010457
X+053212Y+024563
X+044693Y+032044
X+056920Y+032115
X+059891Y+017886
X+058365Y+010457
X+060583Y+043288
X+111942Y+018201
X+060409Y+024488
X+059359Y+025688
X+015184Y+002969
X+014913Y+005284
X+014996Y+016451
X+013797Y+030851
X+017020Y+044086
X+024534Y+002094
X+022496Y+025819
X+024848Y+018013
X+021174Y+010465
X+023710Y+003017
X+019034Y+031990
X+017600Y+041651
X+103266Y+010465
X+004455Y+044686
X+004350Y+032850
T02
X+004309Y+054151
X+004309Y+053151
X+005309Y+054151
X+005309Y+053151
X+006309Y+054151
X+006309Y+053151
X+007309Y+054151
X+007309Y+053151
X+008309Y+054151
X+008309Y+053151
X+009309Y+054151
X+009309Y+053151
X+010309Y+054151
X+010309Y+053151
X+011309Y+054151
X+011309Y+053151
X+012309Y+054151
X+012309Y+053151
X+013309Y+054151
X+013309Y+053151
X+014309Y+054151
X+014309Y+053151
X+015309Y+054151
X+015309Y+053151
X+016309Y+054151
X+016309Y+053151
X+017309Y+054151
X+017309Y+053151
X+018309Y+054151
X+018309Y+053151
X+019309Y+054151
X+019309Y+053151
X+020309Y+054151
X+020309Y+053151
X+021309Y+054151
X+021309Y+053151
X+022309Y+054151
X+022309Y+053151
X+023309Y+054151
X+023309Y+053151
T03
X+115909Y+010101
X+114909Y+010101
X+115909Y+011101
X+114909Y+011101
X+115909Y+012101
X+114909Y+012101
X+115909Y+013101
X+114909Y+013101
X+115909Y+014101
X+114909Y+014101
X+115909Y+015101
X+114909Y+015101
X+115909Y+016101
X+114909Y+016101
X+115909Y+017101
X+114909Y+017101
X+115909Y+018101
X+114909Y+018101
X+115909Y+019101
X+114909Y+019101
X+115909Y+020101
X+114909Y+020101
X+115909Y+021101
X+114909Y+021101
X+115909Y+022101
X+114909Y+022101
X+115909Y+023101
X+114909Y+023101
X+115909Y+024101
X+114909Y+024101
X+115909Y+025101
X+114909Y+025101
X+115909Y+026101
X+114909Y+026101
X+115909Y+027101
X+114909Y+027101
X+115909Y+028101
X+114909Y+028101
X+115909Y+029101
X+114909Y+029101
T04
X+103245Y+014138G85X+103247Y+014138
X+100745Y+013138G85X+100747Y+013138
X+029195Y+014138G85X+029197Y+014138
X+026695Y+013138G85X+026697Y+013138
X+049795Y+036638G85X+049797Y+036638
X+047295Y+035638G85X+047297Y+035638
X+064795Y+036638G85X+064797Y+036638
X+062295Y+035638G85X+062297Y+035638
X+105145Y+021638G85X+105147Y+021638
X+102645Y+020638G85X+102647Y+020638
X+009495Y+014138G85X+009497Y+014138
X+006995Y+013138G85X+006997Y+013138
X+052607Y+006601G85X+052610Y+006601
X+050107Y+005601G85X+050110Y+005601
X+108858Y+006651G85X+108860Y+006651
X+106358Y+005651G85X+106360Y+005651
X+090145Y+006638G85X+090147Y+006638
X+087645Y+005638G85X+087647Y+005638
X+080745Y+006638G85X+080747Y+006638
X+078245Y+005638G85X+078247Y+005638
X+024495Y+006638G85X+024497Y+006638
X+021995Y+005638G85X+021997Y+005638
X+015145Y+006638G85X+015147Y+006638
X+012645Y+005638G85X+012647Y+005638
X+005745Y+006638G85X+005747Y+006638
X+003245Y+005638G85X+003247Y+005638
X+089195Y+014138G85X+089197Y+014138
X+086695Y+013138G85X+086697Y+013138
X+081695Y+014138G85X+081697Y+014138
X+079195Y+013138G85X+079197Y+013138
X+074195Y+014138G85X+074197Y+014138
X+071695Y+013138G85X+071697Y+013138
X+066695Y+014138G85X+066697Y+014138
X+064195Y+013138G85X+064197Y+013138
X+059195Y+014138G85X+059197Y+014138
X+056695Y+013138G85X+056697Y+013138
X+051695Y+014138G85X+051697Y+014138
X+049195Y+013138G85X+049197Y+013138
X+044195Y+014138G85X+044197Y+014138
X+041695Y+013138G85X+041697Y+013138
X+036695Y+014138G85X+036697Y+014138
X+034195Y+013138G85X+034197Y+013138
X+021695Y+014138G85X+021697Y+014138
X+019195Y+013138G85X+019197Y+013138
X+092945Y+021638G85X+092947Y+021638
X+090445Y+020638G85X+090447Y+020638
X+085445Y+021638G85X+085447Y+021638
X+082945Y+020638G85X+082947Y+020638
X+077945Y+021638G85X+077947Y+021638
X+075445Y+020638G85X+075447Y+020638
X+070445Y+021638G85X+070447Y+021638
X+067945Y+020638G85X+067947Y+020638
X+062945Y+021638G85X+062947Y+021638
X+060445Y+020638G85X+060447Y+020638
X+055445Y+021638G85X+055447Y+021638
X+052945Y+020638G85X+052947Y+020638
X+047945Y+021638G85X+047947Y+021638
X+045445Y+020638G85X+045447Y+020638
X+040445Y+021638G85X+040447Y+021638
X+037945Y+020638G85X+037947Y+020638
X+032945Y+021638G85X+032947Y+021638
X+030445Y+020638G85X+030447Y+020638
X+025445Y+021638G85X+025447Y+021638
X+022945Y+020638G85X+022947Y+020638
X+017945Y+021638G85X+017947Y+021638
X+015445Y+020638G85X+015447Y+020638
X+006695Y+029138G85X+006697Y+029138
X+004195Y+028138G85X+004197Y+028138
X+107945Y+029138G85X+107947Y+029138
X+105445Y+028138G85X+105447Y+028138
X+098545Y+029138G85X+098547Y+029138
X+096045Y+028138G85X+096047Y+028138
X+091045Y+029138G85X+091047Y+029138
X+088545Y+028138G85X+088547Y+028138
X+083545Y+029138G85X+083547Y+029138
X+081045Y+028138G85X+081047Y+028138
X+076045Y+029138G85X+076047Y+029138
X+073545Y+028138G85X+073547Y+028138
X+068545Y+029138G85X+068547Y+029138
X+066045Y+028138G85X+066047Y+028138
X+061045Y+029138G85X+061047Y+029138
X+058545Y+028138G85X+058547Y+028138
X+053545Y+029138G85X+053547Y+029138
X+051045Y+028138G85X+051047Y+028138
X+046045Y+029138G85X+046047Y+029138
X+043545Y+028138G85X+043547Y+028138
X+038545Y+029138G85X+038547Y+029138
X+036045Y+028138G85X+036047Y+028138
X+031045Y+029138G85X+031047Y+029138
X+028545Y+028138G85X+028547Y+028138
X+023545Y+029138G85X+023547Y+029138
X+021045Y+028138G85X+021047Y+028138
X+016045Y+029138G85X+016047Y+029138
X+013545Y+028138G85X+013547Y+028138
X+007645Y+021638G85X+007647Y+021638
X+005145Y+020638G85X+005147Y+020638
X+106045Y+036638G85X+106047Y+036638
X+103545Y+035638G85X+103547Y+035638
X+094795Y+036638G85X+094797Y+036638
X+092295Y+035638G85X+092297Y+035638
X+087295Y+036638G85X+087297Y+036638
X+084795Y+035638G85X+084797Y+035638
X+079795Y+036638G85X+079797Y+036638
X+077295Y+035638G85X+077297Y+035638
X+072295Y+036638G85X+072297Y+036638
X+069795Y+035638G85X+069797Y+035638
X+057295Y+036638G85X+057297Y+036638
X+054795Y+035638G85X+054797Y+035638
X+042295Y+036638G85X+042297Y+036638
X+039795Y+035638G85X+039797Y+035638
X+034795Y+036638G85X+034797Y+036638
X+032295Y+035638G85X+032297Y+035638
X+027295Y+036638G85X+027297Y+036638
X+024795Y+035638G85X+024797Y+035638
X+019795Y+036638G85X+019797Y+036638
X+017295Y+035638G85X+017297Y+035638
X+012295Y+036638G85X+012297Y+036638
X+009795Y+035638G85X+009797Y+035638
X+004795Y+036638G85X+004797Y+036638
X+002295Y+035638G85X+002297Y+035638
X+004795Y+047888G85X+004797Y+047888
X+002295Y+046888G85X+002297Y+046888
X+019795Y+047888G85X+019797Y+047888
X+017295Y+046888G85X+017297Y+046888
X+027295Y+047888G85X+027297Y+047888
X+024795Y+046888G85X+024797Y+046888
X+034795Y+047888G85X+034797Y+047888
X+032295Y+046888G85X+032297Y+046888
X+042295Y+047888G85X+042297Y+047888
X+039795Y+046888G85X+039797Y+046888
X+053545Y+047888G85X+053547Y+047888
X+051045Y+046888G85X+051047Y+046888
X+068545Y+047888G85X+068547Y+047888
X+066045Y+046888G85X+066047Y+046888
X+087295Y+047888G85X+087297Y+047888
X+084795Y+046888G85X+084797Y+046888
X+094795Y+047888G85X+094797Y+047888
X+092295Y+046888G85X+092297Y+046888
X+102295Y+047888G85X+102297Y+047888
X+099795Y+046888G85X+099797Y+046888
X+109795Y+047888G85X+109797Y+047888
X+107295Y+046888G85X+107297Y+046888
X+076045Y+047888G85X+076047Y+047888
X+073545Y+046888G85X+073547Y+046888
X+061045Y+047888G85X+061047Y+047888
X+058545Y+046888G85X+058547Y+046888
X+099508Y+006651G85X+099510Y+006651
X+097008Y+005651G85X+097010Y+005651
M30
