G04 Layer: TopLayer*
G04 EasyEDA v6.3.22, 2020-04-05T15:57:41+08:00*
G04 26a83e50978f4d2e98ee8e0c0de4659f,084ec32517fd449a9a4c349b315ac0e1,10*
G04 Gerber Generator version 0.2*
G04 Scale: 100 percent, Rotated: No, Reflected: No *
G04 Dimensions in inches *
G04 leading zeros omitted , absolute positions ,2 integer and 4 decimal *
%FSLAX24Y24*%
%MOIN*%
G90*
G70D02*

%ADD10C,0.010000*%
%ADD11C,0.008000*%
%ADD12C,0.024000*%
%ADD13C,0.098400*%
%ADD14C,0.060000*%
%ADD15R,0.060000X0.060000*%

%LPD*%
G54D10*
G01X114909Y10101D02*
G01X114104Y10905D01*
G01X81139Y10905D01*
G01X79260Y9026D01*
G01X44938Y9026D01*
G01X44809Y9155D01*
G01X115909Y10101D02*
G01X115409Y10601D01*
G01X115409Y11228D01*
G01X115071Y11565D01*
G01X108675Y11565D01*
G01X108176Y11067D01*
G01X80992Y11067D01*
G01X79113Y9188D01*
G01X50192Y9188D01*
G01X44129Y15251D01*
G01X43772Y15251D01*
G01X71715Y52451D02*
G01X23009Y52451D01*
G01X22309Y53151D01*
G01X90533Y14794D02*
G01X109239Y14794D01*
G01X115711Y52451D02*
G01X81048Y52451D01*
G01X78938Y54561D01*
G01X22719Y54561D01*
G01X22309Y54151D01*
G01X108606Y15167D02*
G01X84454Y15167D01*
G01X84285Y15000D01*
G01X89252Y54648D02*
G01X89177Y54723D01*
G01X21881Y54723D01*
G01X21309Y54151D01*
G01X115909Y12101D02*
G01X115472Y12538D01*
G01X109418Y12538D01*
G01X108109Y11228D01*
G01X100488Y11228D01*
G01X99773Y11942D01*
G01X99773Y12396D01*
G01X19309Y54151D02*
G01X20205Y55046D01*
G01X90335Y55046D01*
G01X90577Y54805D01*
G01X101718Y13032D02*
G01X110813Y13032D01*
G01X114293Y16511D01*
G01X115085Y16511D01*
G01X115352Y16244D01*
G01X115352Y14657D01*
G01X115909Y14101D01*
G01X37992Y16909D02*
G01X37992Y16640D01*
G01X38427Y16205D01*
G01X109735Y16205D01*
G01X109896Y16044D01*
G01X38534Y16450D02*
G01X38564Y16419D01*
G01X110254Y16419D01*
G01X17309Y54151D02*
G01X18365Y55207D01*
G01X93773Y55207D01*
G01X96206Y52776D01*
G01X112684Y52776D01*
G01X16309Y54151D02*
G01X16734Y53726D01*
G01X37052Y53726D01*
G01X37140Y53813D01*
G01X78838Y53813D01*
G01X80717Y51934D01*
G01X112927Y51934D01*
G01X115909Y18101D02*
G01X115563Y18446D01*
G01X15309Y54151D02*
G01X16688Y55530D01*
G01X103050Y55530D01*
G01X103205Y55375D01*
G01X38221Y15913D02*
G01X109118Y15913D01*
G01X109156Y15951D01*
G01X115909Y19101D02*
G01X115497Y19511D01*
G01X115497Y21348D01*
G01X115751Y21601D01*
G01X116002Y21601D01*
G01X116351Y21948D01*
G01X116351Y28278D01*
G01X115939Y28690D01*
G01X115661Y28690D01*
G01X115409Y28942D01*
G01X115409Y29227D01*
G01X113076Y31561D01*
G01X101514Y31561D01*
G01X95667Y37407D01*
G01X62402Y37407D01*
G01X59359Y40451D01*
G01X13309Y54151D02*
G01X13647Y54151D01*
G01X14059Y53740D01*
G01X15563Y53740D01*
G01X15809Y53986D01*
G01X15809Y54232D01*
G01X16944Y55369D01*
G01X93921Y55369D01*
G01X94236Y55053D01*
G01X110289Y55053D01*
G01X12309Y54151D02*
G01X12897Y53561D01*
G01X13556Y53561D01*
G01X13809Y53309D01*
G01X13809Y53038D01*
G01X16418Y50430D01*
G01X44893Y50430D01*
G01X51075Y44248D01*
G01X67930Y44248D01*
G01X68119Y44057D01*
G01X68119Y43548D01*
G01X74010Y37659D01*
G01X99225Y37659D01*
G01X103997Y32886D01*
G01X105555Y32886D01*
G01X105786Y32655D01*
G01X105786Y32144D01*
G01X105989Y31942D01*
G01X113718Y31942D01*
G01X116511Y29148D01*
G01X116511Y21703D01*
G01X115909Y21101D01*
G01X11309Y54151D02*
G01X12863Y55705D01*
G01X109867Y55705D01*
G01X10159Y33048D02*
G01X17559Y33048D01*
G01X20867Y29740D01*
G01X106022Y29740D01*
G01X108117Y27646D01*
G01X111364Y27646D01*
G01X114909Y26101D02*
G01X115340Y26532D01*
G01X115340Y28307D01*
G01X114964Y28684D01*
G01X109347Y28684D01*
G01X108093Y29940D01*
G01X23264Y29940D01*
G01X19919Y33284D01*
G01X7664Y33284D01*
G01X7585Y33205D01*
G01X103409Y51330D02*
G01X103348Y51390D01*
G01X18448Y51390D01*
G01X16809Y53030D01*
G01X16809Y53232D01*
G01X16464Y53579D01*
G01X13911Y53579D01*
G01X13751Y53740D01*
G01X13131Y53740D01*
G01X12752Y54119D01*
G01X12752Y54288D01*
G01X12414Y54627D01*
G01X12193Y54627D01*
G01X11835Y54269D01*
G01X11835Y54055D01*
G01X11502Y53723D01*
G01X4735Y53723D01*
G01X4309Y54151D01*
G01X61034Y43701D02*
G01X61405Y43701D01*
G01X76034Y44086D02*
G01X76047Y44100D01*
G01X76047Y47888D01*
G01X76034Y43701D02*
G01X76034Y44086D01*
G01X109784Y44136D02*
G01X109797Y44150D01*
G01X109797Y47888D01*
G01X109784Y43751D02*
G01X109784Y44136D01*
G01X102334Y43701D02*
G01X102334Y47851D01*
G01X102297Y47888D01*
G01X94784Y44086D02*
G01X94797Y44100D01*
G01X94797Y47888D01*
G01X94784Y43701D02*
G01X94784Y44086D01*
G01X87334Y43701D02*
G01X87334Y47851D01*
G01X87297Y47888D01*
G01X68584Y43701D02*
G01X68584Y47851D01*
G01X68547Y47888D01*
G01X53534Y43701D02*
G01X53534Y43315D01*
G01X53534Y43315D02*
G01X53214Y43315D01*
G01X42284Y44086D02*
G01X42297Y44100D01*
G01X42297Y47888D01*
G01X42284Y43701D02*
G01X42284Y44086D01*
G01X34784Y44086D02*
G01X34797Y44100D01*
G01X34797Y47888D01*
G01X34784Y43701D02*
G01X34784Y44086D01*
G01X27234Y43701D02*
G01X27234Y44161D01*
G01X19784Y43701D02*
G01X19784Y47875D01*
G01X19797Y47888D01*
G01X4784Y44686D02*
G01X4797Y44700D01*
G01X4797Y47888D01*
G01X4784Y44301D02*
G01X4784Y44686D01*
G01X5147Y20638D02*
G01X10623Y20638D01*
G01X13547Y28138D02*
G01X21047Y28138D01*
G01X21047Y28138D02*
G01X28547Y28138D01*
G01X28547Y28138D02*
G01X36047Y28138D01*
G01X36047Y28138D02*
G01X43547Y28138D01*
G01X43547Y28138D02*
G01X51047Y28138D01*
G01X51047Y28138D02*
G01X58547Y28138D01*
G01X58547Y28138D02*
G01X66047Y28138D01*
G01X66047Y28138D02*
G01X73547Y28138D01*
G01X73547Y28138D02*
G01X81047Y28138D01*
G01X81047Y28138D02*
G01X88547Y28138D01*
G01X88547Y28138D02*
G01X96047Y28138D01*
G01X96047Y28138D02*
G01X105447Y28138D01*
G01X3246Y5638D02*
G01X12647Y5638D01*
G01X12647Y5638D02*
G01X21997Y5638D01*
G01X21997Y5638D02*
G01X37961Y5638D01*
G01X42710Y10386D01*
G01X43740Y10386D01*
G01X43769Y10357D01*
G01X43769Y9801D01*
G01X47969Y5601D01*
G01X50109Y5601D01*
G01X78247Y5638D02*
G01X76672Y7211D01*
G01X51719Y7211D01*
G01X50109Y5601D01*
G01X52634Y2501D02*
G01X52634Y6576D01*
G01X52609Y6601D01*
G01X15447Y20638D02*
G01X22947Y20638D01*
G01X22947Y20638D02*
G01X30447Y20638D01*
G01X30447Y20638D02*
G01X37947Y20638D01*
G01X37947Y20638D02*
G01X45447Y20638D01*
G01X45447Y20638D02*
G01X52947Y20638D01*
G01X52947Y20638D02*
G01X60447Y20638D01*
G01X60447Y20638D02*
G01X67947Y20638D01*
G01X67947Y20638D02*
G01X75447Y20638D01*
G01X75447Y20638D02*
G01X82947Y20638D01*
G01X82947Y20638D02*
G01X90447Y20638D01*
G01X102647Y20638D02*
G01X90447Y20638D01*
G01X8571Y26051D02*
G01X12597Y26051D01*
G01X102647Y20638D02*
G01X102647Y21050D01*
G01X106188Y24590D01*
G01X106188Y24646D01*
G01X106322Y24782D01*
G01X106379Y24782D01*
G01X107133Y25536D01*
G01X115473Y25536D01*
G01X115909Y25101D01*
G01X6309Y54151D02*
G01X5309Y54151D01*
G01X99797Y48500D02*
G01X99797Y46888D01*
G01X107297Y46888D02*
G01X105685Y48500D01*
G01X99797Y48500D01*
G01X92297Y48500D02*
G01X92297Y46888D01*
G01X99797Y48500D02*
G01X92297Y48500D01*
G01X92297Y48500D02*
G01X86409Y48500D01*
G01X84797Y46888D01*
G01X51047Y46888D02*
G01X58547Y46888D01*
G01X39797Y46888D02*
G01X38193Y48490D01*
G01X33900Y48490D01*
G01X32297Y46888D01*
G01X2296Y35638D02*
G01X9797Y35638D01*
G01X9797Y35638D02*
G01X17297Y35638D01*
G01X32297Y35638D02*
G01X39797Y35638D01*
G01X39797Y35638D02*
G01X47297Y35638D01*
G01X54797Y35638D02*
G01X62297Y35638D01*
G01X69797Y35638D02*
G01X62297Y35638D01*
G01X84797Y35638D02*
G01X84797Y37246D01*
G01X77297Y35638D02*
G01X78905Y37246D01*
G01X84797Y37246D01*
G01X84797Y37246D02*
G01X90689Y37246D01*
G01X92297Y35638D01*
G01X24797Y46888D02*
G01X23193Y48490D01*
G01X18900Y48490D01*
G01X17297Y46888D01*
G01X58547Y46888D02*
G01X66047Y46888D01*
G01X24797Y35638D02*
G01X24728Y35569D01*
G01X17364Y35569D01*
G01X17297Y35638D01*
G01X12334Y32030D02*
G01X12334Y32501D01*
G01X19797Y36638D02*
G01X19305Y36146D01*
G01X19305Y35801D01*
G01X19784Y32451D02*
G01X19784Y32836D01*
G01X19602Y32907D02*
G01X19673Y32836D01*
G01X19784Y32836D01*
G01X7647Y21638D02*
G01X9986Y21638D01*
G01X10889Y20734D01*
G01X10889Y20486D01*
G01X8439Y18036D01*
G01X7684Y18036D01*
G01X7684Y17651D02*
G01X7684Y18036D01*
G01X9497Y14138D02*
G01X7105Y14138D01*
G01X6365Y13398D01*
G01X6365Y12898D01*
G01X8877Y10386D01*
G01X9534Y10386D01*
G01X9534Y10001D02*
G01X9534Y10386D01*
G01X15834Y25001D02*
G01X15834Y25386D01*
G01X16035Y25465D02*
G01X15956Y25386D01*
G01X15834Y25386D01*
G01X17934Y18015D02*
G01X17934Y17551D01*
G01X23384Y25736D02*
G01X23125Y25736D01*
G01X23027Y25638D01*
G01X23384Y25351D02*
G01X23384Y25736D01*
G01X25484Y18011D02*
G01X25484Y17551D01*
G01X21684Y10386D02*
G01X21697Y10400D01*
G01X21697Y14138D01*
G01X21684Y10001D02*
G01X21684Y10386D01*
G01X42284Y32451D02*
G01X42284Y32836D01*
G01X42521Y33480D02*
G01X42521Y33073D01*
G01X42284Y32836D01*
G01X45884Y25151D02*
G01X45884Y25536D01*
G01X46147Y25605D02*
G01X46077Y25536D01*
G01X45884Y25536D01*
G01X47934Y17501D02*
G01X47934Y17115D01*
G01X47934Y17115D02*
G01X47598Y17115D01*
G01X44234Y10001D02*
G01X44234Y14101D01*
G01X44197Y14138D01*
G01X51884Y2501D02*
G01X51884Y2886D01*
G01X43484Y10001D02*
G01X43484Y9615D01*
G01X45134Y25151D02*
G01X45134Y25536D01*
G01X44981Y25617D02*
G01X45063Y25536D01*
G01X45134Y25536D01*
G01X41534Y32065D02*
G01X41446Y32065D01*
G01X41373Y31992D01*
G01X47223Y17973D02*
G01X47184Y17932D01*
G01X47184Y17501D01*
G01X51884Y2886D02*
G01X50211Y2886D01*
G01X43484Y9615D01*
G01X52784Y43701D02*
G01X52784Y43423D01*
G01X43484Y10001D02*
G01X43467Y10017D01*
G01X43126Y10017D01*
G01X47223Y17973D02*
G01X48085Y17973D01*
G01X49156Y16903D01*
G01X106398Y16903D01*
G01X106468Y16973D01*
G01X41534Y32298D02*
G01X41534Y32065D01*
G01X41534Y32298D02*
G01X41534Y32451D01*
G01X41534Y32451D02*
G01X41534Y33121D01*
G01X42757Y34344D01*
G01X42757Y35205D01*
G01X42872Y35319D01*
G01X47259Y42742D02*
G01X47614Y43096D01*
G01X47614Y43423D01*
G01X52784Y43423D02*
G01X47614Y43423D01*
G01X47614Y43423D02*
G01X40930Y50107D01*
G01X15771Y50107D01*
G01X12782Y53096D01*
G01X12782Y53265D01*
G01X12485Y53561D01*
G01X11719Y53561D01*
G01X11309Y53151D01*
G01X27297Y36638D02*
G01X27297Y32850D01*
G01X27284Y32836D01*
G01X27284Y32451D02*
G01X27284Y32836D01*
G01X30984Y25401D02*
G01X30984Y25786D01*
G01X30622Y25698D02*
G01X30710Y25786D01*
G01X30984Y25786D01*
G01X32984Y17551D02*
G01X32984Y17936D01*
G01X33168Y18013D02*
G01X33093Y17936D01*
G01X32984Y17936D01*
G01X29284Y10051D02*
G01X29284Y14051D01*
G01X29197Y14138D01*
G01X32234Y17551D02*
G01X32234Y17936D01*
G01X29668Y17936D02*
G01X32234Y17936D01*
G01X28534Y10519D02*
G01X28534Y10051D01*
G01X34034Y43701D02*
G01X34034Y43315D01*
G01X26534Y32836D02*
G01X25400Y33971D01*
G01X25400Y36394D01*
G01X31931Y42923D01*
G01X31931Y42923D02*
G01X32321Y43315D01*
G01X34034Y43315D01*
G01X31931Y42923D02*
G01X27972Y46882D01*
G01X26334Y46882D01*
G01X23753Y49463D01*
G01X19984Y49463D01*
G01X19880Y49567D01*
G01X11893Y49567D01*
G01X8309Y53151D01*
G01X30234Y25786D02*
G01X29506Y25786D01*
G01X29460Y25738D01*
G01X26534Y32451D02*
G01X26534Y32836D01*
G01X32234Y17936D02*
G01X32603Y18307D01*
G01X40531Y18307D01*
G01X42096Y16742D01*
G01X106636Y16742D01*
G01X114909Y25013D01*
G01X114909Y25101D01*
G01X30234Y25401D02*
G01X30234Y25594D01*
G01X30234Y25594D02*
G01X30234Y25786D01*
G01X26534Y32451D02*
G01X26534Y32065D01*
G01X30234Y25594D02*
G01X30234Y25544D01*
G01X30868Y24909D01*
G01X31502Y24909D01*
G01X26534Y32065D02*
G01X28897Y32065D01*
G01X34784Y32451D02*
G01X34784Y32836D01*
G01X34797Y36638D02*
G01X32373Y36638D01*
G01X31692Y35955D01*
G01X31692Y35373D01*
G01X34227Y32836D01*
G01X34784Y32836D01*
G01X49784Y32451D02*
G01X49784Y32836D01*
G01X49797Y36638D02*
G01X49877Y36557D01*
G01X49877Y32930D01*
G01X49784Y32836D01*
G01X4797Y36638D02*
G01X2428Y36638D01*
G01X1692Y35902D01*
G01X1692Y35373D01*
G01X3978Y33086D01*
G01X4534Y33086D01*
G01X4784Y32836D01*
G01X4784Y32451D02*
G01X4784Y32836D01*
G01X40434Y17551D02*
G01X40434Y17165D01*
G01X40888Y17165D02*
G01X40434Y17165D01*
G01X55434Y17501D02*
G01X55434Y17886D01*
G01X55434Y17886D02*
G01X55775Y17886D01*
G01X53364Y25688D02*
G01X53514Y25536D01*
G01X53834Y25536D01*
G01X53834Y25151D02*
G01X53834Y25536D01*
G01X57297Y36638D02*
G01X54861Y36638D01*
G01X54135Y35911D01*
G01X54135Y35429D01*
G01X56677Y32886D01*
G01X57284Y32886D01*
G01X57284Y32501D02*
G01X57284Y32886D01*
G01X64784Y32451D02*
G01X64784Y32836D01*
G01X64854Y32907D02*
G01X64784Y32836D01*
G01X61034Y25001D02*
G01X61034Y25386D01*
G01X60754Y25432D02*
G01X60800Y25386D01*
G01X61034Y25386D01*
G01X62884Y17971D02*
G01X62884Y17501D01*
G01X38734Y25051D02*
G01X38734Y25436D01*
G01X38734Y25436D02*
G01X39069Y25436D01*
G01X70384Y17971D02*
G01X70384Y17501D01*
G01X68634Y25251D02*
G01X68634Y25636D01*
G01X68634Y25636D02*
G01X68793Y25636D01*
G01X68871Y25713D01*
G01X72297Y36638D02*
G01X72297Y32850D01*
G01X72284Y32836D01*
G01X72284Y32451D02*
G01X72284Y32836D01*
G01X76084Y25471D02*
G01X76084Y25001D01*
G01X79797Y36638D02*
G01X79797Y32923D01*
G01X79834Y32886D01*
G01X79834Y32501D02*
G01X79834Y32886D01*
G01X84034Y25151D02*
G01X84034Y25536D01*
G01X84034Y25536D02*
G01X84104Y25607D01*
G01X77934Y17551D02*
G01X77934Y18000D01*
G01X78102Y18169D01*
G01X66734Y9951D02*
G01X66734Y14101D01*
G01X66697Y14138D01*
G01X75284Y43701D02*
G01X75284Y44086D01*
G01X67884Y25251D02*
G01X67884Y25636D01*
G01X67884Y25636D02*
G01X67677Y25636D01*
G01X67617Y25698D01*
G01X64034Y32451D02*
G01X64034Y31988D01*
G01X69634Y17501D02*
G01X69634Y17886D01*
G01X69634Y17886D02*
G01X69550Y17971D01*
G01X21268Y51117D02*
G01X62911Y51117D01*
G01X62911Y51117D02*
G01X66676Y51117D01*
G01X73706Y44086D01*
G01X75284Y44086D01*
G01X69746Y13376D02*
G01X69746Y12303D01*
G01X67008Y9565D01*
G01X65984Y9565D01*
G01X65984Y9951D02*
G01X65984Y9565D01*
G01X69746Y13376D02*
G01X71929Y15559D01*
G01X109290Y15559D01*
G01X109371Y15478D01*
G01X67752Y24613D02*
G01X67884Y24746D01*
G01X67884Y25251D01*
G01X74184Y9951D02*
G01X74184Y10336D01*
G01X74197Y14138D02*
G01X71825Y14138D01*
G01X71090Y13403D01*
G01X71090Y12890D01*
G01X73315Y10665D01*
G01X73855Y10665D01*
G01X74184Y10336D01*
G01X75334Y25001D02*
G01X75334Y25386D01*
G01X75165Y25459D02*
G01X75239Y25386D01*
G01X75334Y25386D01*
G01X71534Y32065D02*
G01X71431Y32065D01*
G01X71348Y31982D01*
G01X71534Y32451D02*
G01X71534Y32065D01*
G01X86584Y43701D02*
G01X86584Y43315D01*
G01X77184Y17165D02*
G01X77539Y17165D01*
G01X74175Y43315D02*
G01X74175Y43315D01*
G01X69610Y43315D01*
G01X16309Y53151D02*
G01X18703Y50755D01*
G01X66734Y50755D01*
G01X74175Y43315D01*
G01X74175Y43315D02*
G01X86584Y43315D01*
G01X73326Y10411D02*
G01X73401Y10336D01*
G01X73434Y10336D01*
G01X73434Y9951D02*
G01X73434Y10336D01*
G01X111039Y16594D02*
G01X109660Y15213D01*
G01X109097Y15213D01*
G01X108914Y15398D01*
G01X77614Y15398D01*
G01X77539Y15323D01*
G01X77184Y17551D02*
G01X77184Y17357D01*
G01X77184Y17357D02*
G01X77184Y17165D01*
G01X77184Y17357D02*
G01X76052Y18490D01*
G01X76052Y20161D01*
G01X76222Y20332D01*
G01X81747Y10478D02*
G01X81747Y10451D01*
G01X81684Y10386D01*
G01X81684Y10001D02*
G01X81684Y10386D01*
G01X89184Y10001D02*
G01X89184Y10386D01*
G01X89550Y10313D02*
G01X89477Y10386D01*
G01X89184Y10386D01*
G01X108859Y6651D02*
G01X108859Y2861D01*
G01X108834Y2836D01*
G01X108834Y2451D02*
G01X108834Y2836D01*
G01X99509Y6651D02*
G01X99614Y6544D01*
G01X99614Y2967D01*
G01X99534Y2886D01*
G01X99534Y2501D02*
G01X99534Y2886D01*
G01X90134Y2961D02*
G01X90134Y2501D01*
G01X80747Y6638D02*
G01X80864Y6519D01*
G01X80864Y3017D01*
G01X80784Y2936D01*
G01X80784Y2551D02*
G01X80784Y2936D01*
G01X105147Y21638D02*
G01X105147Y17850D01*
G01X105134Y17836D01*
G01X105134Y17451D02*
G01X105134Y17836D01*
G01X92934Y17913D02*
G01X92934Y17451D01*
G01X85434Y17451D02*
G01X85434Y17836D01*
G01X85786Y17836D02*
G01X85434Y17836D01*
G01X80034Y2936D02*
G01X80702Y3605D01*
G01X80702Y5069D01*
G01X80104Y5669D01*
G01X80104Y8784D01*
G01X80934Y9615D01*
G01X80934Y10001D02*
G01X80934Y9615D01*
G01X80034Y2551D02*
G01X80034Y2936D01*
G01X18309Y53151D02*
G01X18722Y53565D01*
G01X71433Y53565D01*
G01X94034Y43701D02*
G01X94034Y43315D01*
G01X94034Y43315D02*
G01X87077Y43315D01*
G01X86934Y43457D01*
G01X86934Y43963D01*
G01X86771Y44126D01*
G01X76322Y44126D01*
G01X84754Y17919D02*
G01X84684Y17848D01*
G01X84684Y17451D01*
G01X79084Y32501D02*
G01X79084Y32886D01*
G01X78648Y33251D02*
G01X78719Y33251D01*
G01X79084Y32886D01*
G01X83284Y25151D02*
G01X83284Y24765D01*
G01X83284Y24765D02*
G01X79656Y24765D01*
G01X80934Y10001D02*
G01X80934Y10386D01*
G01X84858Y10732D02*
G01X84858Y10673D01*
G01X114909Y15101D02*
G01X114909Y14873D01*
G01X115497Y14284D01*
G01X115497Y12926D01*
G01X115851Y12573D01*
G01X116106Y12573D01*
G01X116361Y12317D01*
G01X116361Y9946D01*
G01X116034Y9617D01*
G01X105259Y9617D01*
G01X104143Y10732D01*
G01X84858Y10732D01*
G01X84858Y10732D02*
G01X81280Y10732D01*
G01X80934Y10386D01*
G01X107659Y25113D02*
G01X107972Y25113D01*
G01X108034Y25051D01*
G01X98784Y25151D02*
G01X98784Y25536D01*
G01X98902Y25607D02*
G01X98831Y25536D01*
G01X98784Y25536D01*
G01X91384Y25051D02*
G01X91384Y25436D01*
G01X91559Y25515D02*
G01X91481Y25436D01*
G01X91384Y25436D01*
G01X106047Y36638D02*
G01X106084Y36601D01*
G01X106084Y32501D01*
G01X107284Y25051D02*
G01X107284Y24665D01*
G01X102484Y10001D02*
G01X102484Y9615D01*
G01X105956Y6142D02*
G01X102484Y9615D01*
G01X108084Y2451D02*
G01X108084Y3073D01*
G01X105735Y5421D01*
G01X105735Y5919D01*
G01X105956Y6142D01*
G01X105956Y6142D02*
G01X108223Y8407D01*
G01X116593Y8407D01*
G01X104384Y17644D02*
G01X104384Y17836D01*
G01X104384Y17644D02*
G01X104384Y17451D01*
G01X104384Y17065D02*
G01X105643Y17065D01*
G01X105713Y17134D01*
G01X104384Y17451D02*
G01X104384Y17065D01*
G01X102484Y10001D02*
G01X102484Y10415D01*
G01X102540Y10471D01*
G01X107284Y24665D02*
G01X106418Y23800D01*
G01X106418Y23800D02*
G01X106418Y24551D01*
G01X105339Y31917D02*
G01X105334Y31923D01*
G01X105334Y32501D01*
G01X106418Y23800D02*
G01X103884Y21265D01*
G01X103884Y20744D01*
G01X103185Y20046D01*
G01X103185Y19034D01*
G01X104384Y17836D01*
G01X20309Y54151D02*
G01X21043Y54884D01*
G01X89404Y54884D01*
G01X90460Y53828D01*
G01X91908Y53828D01*
G01X94797Y36638D02*
G01X94797Y32900D01*
G01X94784Y32886D01*
G01X94784Y32501D02*
G01X94784Y32886D01*
G01X109729Y2065D02*
G01X98834Y2065D01*
G01X98784Y2115D01*
G01X109034Y43751D02*
G01X109034Y44136D01*
G01X98543Y41651D02*
G01X107319Y41651D01*
G01X109034Y43365D01*
G01X109034Y43751D02*
G01X109034Y43365D01*
G01X109034Y44136D02*
G01X107861Y45307D01*
G01X107861Y46323D01*
G01X107933Y46394D01*
G01X107933Y47136D01*
G01X103508Y51561D01*
G01X21897Y51561D01*
G01X20309Y53151D01*
G01X93980Y21269D02*
G01X94539Y21269D01*
G01X98034Y24765D01*
G01X98034Y25151D02*
G01X98034Y24765D01*
G01X94034Y32030D02*
G01X94034Y32501D01*
G01X94034Y32030D02*
G01X92776Y32030D01*
G01X92660Y31915D01*
G01X98784Y2403D02*
G01X98784Y2115D01*
G01X98784Y2403D02*
G01X98784Y2501D01*
G01X98784Y2886D02*
G01X99452Y3555D01*
G01X99452Y5094D01*
G01X98900Y5648D01*
G01X98900Y9519D01*
G01X99847Y10467D01*
G01X98784Y2501D02*
G01X98784Y2886D01*
G01X87334Y32501D02*
G01X87334Y36601D01*
G01X87297Y36638D01*
G01X89384Y2501D02*
G01X89384Y2886D01*
G01X89384Y2886D02*
G01X88250Y4021D01*
G01X88250Y9430D01*
G01X88434Y9615D01*
G01X90634Y25051D02*
G01X90634Y24665D01*
G01X88434Y10001D02*
G01X88434Y9615D01*
G01X92184Y17909D02*
G01X92184Y17451D01*
G01X90634Y24665D02*
G01X90560Y24592D01*
G01X19309Y53151D02*
G01X19309Y53123D01*
G01X19964Y52465D01*
G01X101584Y43315D02*
G01X101027Y42757D01*
G01X90508Y42757D01*
G01X101584Y43701D02*
G01X101584Y43315D01*
G01X86584Y32501D02*
G01X86584Y32115D01*
G01X90434Y32115D02*
G01X86584Y32115D01*
G01X86584Y32115D02*
G01X86215Y31746D01*
G01X30556Y31746D01*
G01X30456Y31846D01*
G01X114909Y14101D02*
G01X113651Y12842D01*
G01X106992Y12842D01*
G01X105914Y11765D01*
G01X88497Y10478D02*
G01X88434Y10417D01*
G01X88434Y10001D01*
G01X36784Y10001D02*
G01X36784Y14051D01*
G01X36697Y14138D01*
G01X41534Y43701D02*
G01X41534Y43315D01*
G01X10309Y53151D02*
G01X13731Y49728D01*
G01X28269Y49728D01*
G01X28282Y49715D01*
G01X38010Y24594D02*
G01X37984Y24621D01*
G01X37984Y25051D01*
G01X37984Y25436D02*
G01X37989Y25440D01*
G01X37989Y25690D01*
G01X37984Y25051D02*
G01X37984Y25436D01*
G01X41534Y43315D02*
G01X38364Y43315D01*
G01X37347Y17236D02*
G01X37347Y17778D01*
G01X36034Y10001D02*
G01X36034Y10430D01*
G01X33571Y12894D01*
G01X33571Y13461D01*
G01X37347Y17236D01*
G01X37347Y17236D02*
G01X39684Y17236D01*
G01X114909Y23101D02*
G01X108389Y16580D01*
G01X40339Y16580D01*
G01X39684Y17236D01*
G01X39684Y17236D02*
G01X39684Y17551D01*
G01X34034Y32451D02*
G01X34034Y32257D01*
G01X34034Y32257D02*
G01X34034Y32065D01*
G01X34034Y32257D02*
G01X33522Y32257D01*
G01X31297Y34482D01*
G01X31297Y36369D01*
G01X36268Y41342D01*
G01X34034Y32065D02*
G01X34361Y32065D01*
G01X34393Y32032D01*
G01X51634Y10001D02*
G01X51634Y10386D01*
G01X51697Y14138D02*
G01X49335Y14138D01*
G01X48554Y13357D01*
G01X48554Y12928D01*
G01X50747Y10734D01*
G01X51285Y10734D01*
G01X51634Y10386D01*
G01X54684Y17501D02*
G01X54684Y17886D01*
G01X50884Y10457D02*
G01X50884Y10001D01*
G01X54684Y17886D02*
G01X53550Y17886D01*
G01X60284Y43701D02*
G01X60284Y43315D01*
G01X50884Y10001D02*
G01X50884Y9615D01*
G01X49034Y32836D02*
G01X49715Y33519D01*
G01X49715Y35107D01*
G01X49150Y35673D01*
G01X49150Y38701D01*
G01X49150Y38701D02*
G01X55669Y38701D01*
G01X60284Y43315D01*
G01X114909Y21101D02*
G01X112183Y18375D01*
G01X112183Y17411D01*
G01X108268Y13498D01*
G01X101858Y13498D01*
G01X101364Y13003D01*
G01X101364Y12853D01*
G01X101042Y12530D01*
G01X100501Y12530D01*
G01X100000Y13032D01*
G01X87826Y13032D01*
G01X86448Y11655D01*
G01X82444Y11655D01*
G01X81068Y13032D01*
G01X80326Y13032D01*
G01X76697Y9403D01*
G01X51094Y9403D01*
G01X50884Y9615D01*
G01X12309Y53151D02*
G01X15514Y49946D01*
G01X28380Y49946D01*
G01X34239Y44086D01*
G01X34290Y44086D01*
G01X34319Y44057D01*
G01X34319Y43555D01*
G01X36302Y41573D01*
G01X46279Y41573D01*
G01X49150Y38701D01*
G01X53211Y24563D02*
G01X53084Y24690D01*
G01X53084Y25151D01*
G01X49034Y32451D02*
G01X49034Y32644D01*
G01X49034Y32644D02*
G01X49034Y32836D01*
G01X49034Y32644D02*
G01X45292Y32644D01*
G01X44693Y32044D01*
G01X59184Y10386D02*
G01X59197Y10400D01*
G01X59197Y14138D01*
G01X59184Y10001D02*
G01X59184Y10386D01*
G01X56534Y32501D02*
G01X56534Y32115D01*
G01X56534Y32115D02*
G01X56919Y32115D01*
G01X62134Y17501D02*
G01X62134Y17886D01*
G01X58364Y10457D02*
G01X58434Y10388D01*
G01X58434Y10001D01*
G01X67834Y43701D02*
G01X67834Y43315D01*
G01X60582Y43315D02*
G01X67834Y43315D01*
G01X60582Y43288D02*
G01X60582Y43315D01*
G01X60582Y43315D02*
G01X60582Y44011D01*
G01X60506Y44086D01*
G01X50780Y44086D01*
G01X44598Y50269D01*
G01X16190Y50269D01*
G01X13309Y53151D01*
G01X58434Y10001D02*
G01X58434Y9615D01*
G01X58434Y9615D02*
G01X61804Y9615D01*
G01X65681Y13492D01*
G01X65681Y14021D01*
G01X67381Y15721D01*
G01X109933Y15721D01*
G01X110809Y16596D01*
G01X110809Y16690D01*
G01X111940Y17823D01*
G01X111942Y17823D01*
G01X111942Y18201D01*
G01X59890Y17886D02*
G01X62134Y17886D01*
G01X60409Y24488D02*
G01X60284Y24613D01*
G01X60284Y25001D01*
G01X59359Y25688D02*
G01X59659Y25386D01*
G01X60284Y25386D01*
G01X60284Y25001D02*
G01X60284Y25386D01*
G01X5747Y6638D02*
G01X3373Y6638D01*
G01X2626Y5892D01*
G01X2626Y5388D01*
G01X5077Y2936D01*
G01X5734Y2936D01*
G01X5734Y2551D02*
G01X5734Y2936D01*
G01X15184Y2969D02*
G01X15184Y2501D01*
G01X19034Y43701D02*
G01X19034Y44086D01*
G01X15084Y25386D02*
G01X15084Y26017D01*
G01X15084Y25194D02*
G01X15084Y25386D01*
G01X15084Y25194D02*
G01X15084Y25001D01*
G01X15084Y24615D02*
G01X14819Y24351D01*
G01X14819Y20394D01*
G01X17184Y18030D01*
G01X17184Y17551D01*
G01X15084Y25001D02*
G01X15084Y24615D01*
G01X14996Y16451D02*
G01X16469Y16451D01*
G01X17184Y17165D01*
G01X17184Y17551D02*
G01X17184Y17165D01*
G01X14434Y2501D02*
G01X14434Y3626D01*
G01X15055Y4248D01*
G01X15055Y5140D01*
G01X14913Y5284D01*
G01X15084Y26017D02*
G01X15202Y26136D01*
G01X112943Y26136D01*
G01X114909Y28101D01*
G01X5309Y53151D02*
G01X14372Y44086D01*
G01X17019Y44086D01*
G01X17019Y44086D02*
G01X19034Y44086D01*
G01X15084Y26017D02*
G01X14797Y26017D01*
G01X12897Y27917D01*
G01X12897Y30851D01*
G01X11584Y32115D02*
G01X11634Y32115D01*
G01X12897Y30851D01*
G01X12897Y30851D02*
G01X13797Y30851D01*
G01X11584Y32501D02*
G01X11584Y32115D01*
G01X24534Y2094D02*
G01X24534Y2551D01*
G01X22634Y25351D02*
G01X22634Y25736D01*
G01X22634Y25736D02*
G01X22552Y25819D01*
G01X22496Y25819D01*
G01X24734Y17551D02*
G01X24734Y17936D01*
G01X24847Y18013D02*
G01X24771Y17936D01*
G01X24734Y17936D01*
G01X23710Y3017D02*
G01X23784Y2942D01*
G01X23784Y2551D01*
G01X20934Y10386D02*
G01X21094Y10386D01*
G01X21173Y10465D01*
G01X20934Y10001D02*
G01X20934Y10386D01*
G01X19034Y31990D02*
G01X19034Y32451D01*
G01X26484Y43701D02*
G01X26484Y44086D01*
G01X26484Y44086D02*
G01X25400Y45171D01*
G01X25400Y47175D01*
G01X23272Y49302D01*
G01X10157Y49302D01*
G01X6309Y53151D01*
G01X22634Y25736D02*
G01X22872Y25973D01*
G01X113783Y25973D01*
G01X114909Y27101D01*
G01X17600Y41651D02*
G01X24819Y41651D01*
G01X26484Y43315D01*
G01X26484Y43701D02*
G01X26484Y43315D01*
G01X71697Y13138D02*
G01X79197Y13138D01*
G01X6997Y13138D02*
G01X19197Y13138D01*
G01X26697Y13138D02*
G01X25065Y14769D01*
G01X20827Y14769D01*
G01X19197Y13138D01*
G01X34197Y13138D02*
G01X35813Y14753D01*
G01X40081Y14753D01*
G01X41697Y13138D01*
G01X56697Y13138D02*
G01X58315Y14757D01*
G01X62577Y14757D01*
G01X64197Y13138D01*
G01X56697Y13138D02*
G01X49197Y13138D01*
G01X86697Y13138D02*
G01X86752Y13194D01*
G01X100690Y13194D01*
G01X100747Y13138D01*
G01X79197Y13138D02*
G01X79252Y13194D01*
G01X86640Y13194D01*
G01X86697Y13138D01*
G01X103234Y10386D02*
G01X103265Y10417D01*
G01X103265Y10465D01*
G01X103234Y10001D02*
G01X103234Y10386D01*
G01X6534Y25536D02*
G01X6697Y25700D01*
G01X6697Y29138D01*
G01X6534Y25151D02*
G01X6534Y25536D01*
G01X4034Y44301D02*
G01X4034Y44686D01*
G01X4034Y32451D02*
G01X4034Y32836D01*
G01X4034Y32836D02*
G01X4336Y32836D01*
G01X4350Y32850D01*
G01X8784Y10001D02*
G01X8784Y9615D01*
G01X6934Y17265D02*
G01X6010Y16340D01*
G01X6010Y10459D01*
G01X6468Y10001D01*
G01X8784Y9615D02*
G01X6855Y9615D01*
G01X6468Y10001D01*
G01X6468Y10001D02*
G01X2301Y5832D01*
G01X2301Y4438D01*
G01X3963Y2776D01*
G01X4759Y2776D01*
G01X4759Y2776D01*
G01X4984Y2551D01*
G01X4034Y44686D02*
G01X4455Y44686D01*
G01X6934Y17457D02*
G01X6934Y17265D01*
G01X6934Y17457D02*
G01X6934Y17651D01*
G01X6934Y18036D02*
G01X6894Y18036D01*
G01X4540Y20390D01*
G01X4540Y23521D01*
G01X5784Y24765D01*
G01X6934Y17651D02*
G01X6934Y18036D01*
G01X5784Y24957D02*
G01X5784Y25128D01*
G01X5784Y25151D02*
G01X5784Y25128D01*
G01X5784Y24957D02*
G01X5784Y24765D01*
G01X4034Y32451D02*
G01X4034Y32065D01*
G01X5784Y25128D02*
G01X4800Y26113D01*
G01X4800Y31298D01*
G01X4800Y31298D02*
G01X4034Y32065D01*
G01X114909Y29101D02*
G01X112735Y31273D01*
G01X26598Y31273D01*
G01X24427Y33444D01*
G01X6946Y33444D01*
G01X4800Y31298D01*
G54D11*
G01X57650Y5257D02*
G01X57650Y4494D01*
G01X57650Y5257D02*
G01X57977Y5257D01*
G01X58085Y5221D01*
G01X58122Y5184D01*
G01X58159Y5111D01*
G01X58159Y5038D01*
G01X58122Y4965D01*
G01X58085Y4930D01*
G01X57977Y4894D01*
G01X57650Y4894D01*
G01X57905Y4894D02*
G01X58159Y4494D01*
G01X58835Y5003D02*
G01X58835Y4494D01*
G01X58835Y4894D02*
G01X58763Y4965D01*
G01X58689Y5003D01*
G01X58581Y5003D01*
G01X58507Y4965D01*
G01X58435Y4894D01*
G01X58398Y4784D01*
G01X58398Y4711D01*
G01X58435Y4603D01*
G01X58507Y4530D01*
G01X58581Y4494D01*
G01X58689Y4494D01*
G01X58763Y4530D01*
G01X58835Y4603D01*
G01X59475Y4894D02*
G01X59439Y4965D01*
G01X59330Y5003D01*
G01X59221Y5003D01*
G01X59111Y4965D01*
G01X59075Y4894D01*
G01X59111Y4821D01*
G01X59185Y4784D01*
G01X59365Y4748D01*
G01X59439Y4711D01*
G01X59475Y4638D01*
G01X59475Y4603D01*
G01X59439Y4530D01*
G01X59330Y4494D01*
G01X59221Y4494D01*
G01X59111Y4530D01*
G01X59075Y4603D01*
G01X59714Y5003D02*
G01X59714Y4238D01*
G01X59714Y4894D02*
G01X59788Y4965D01*
G01X59860Y5003D01*
G01X59969Y5003D01*
G01X60043Y4965D01*
G01X60114Y4894D01*
G01X60152Y4784D01*
G01X60152Y4711D01*
G01X60114Y4603D01*
G01X60043Y4530D01*
G01X59969Y4494D01*
G01X59860Y4494D01*
G01X59788Y4530D01*
G01X59714Y4603D01*
G01X60392Y5257D02*
G01X60392Y4494D01*
G01X60392Y4894D02*
G01X60464Y4965D01*
G01X60536Y5003D01*
G01X60646Y5003D01*
G01X60718Y4965D01*
G01X60792Y4894D01*
G01X60827Y4784D01*
G01X60827Y4711D01*
G01X60792Y4603D01*
G01X60718Y4530D01*
G01X60646Y4494D01*
G01X60536Y4494D01*
G01X60464Y4530D01*
G01X60392Y4603D01*
G01X61068Y4784D02*
G01X61505Y4784D01*
G01X61505Y4857D01*
G01X61468Y4930D01*
G01X61431Y4965D01*
G01X61359Y5003D01*
G01X61250Y5003D01*
G01X61177Y4965D01*
G01X61105Y4894D01*
G01X61068Y4784D01*
G01X61068Y4711D01*
G01X61105Y4603D01*
G01X61177Y4530D01*
G01X61250Y4494D01*
G01X61359Y4494D01*
G01X61431Y4530D01*
G01X61505Y4603D01*
G01X61744Y5003D02*
G01X61744Y4494D01*
G01X61744Y4784D02*
G01X61781Y4894D01*
G01X61854Y4965D01*
G01X61926Y5003D01*
G01X62035Y5003D01*
G01X62275Y5003D02*
G01X62275Y4494D01*
G01X62275Y4784D02*
G01X62311Y4894D01*
G01X62385Y4965D01*
G01X62456Y5003D01*
G01X62565Y5003D01*
G01X62843Y5003D02*
G01X63060Y4494D01*
G01X63279Y5003D02*
G01X63060Y4494D01*
G01X62988Y4348D01*
G01X62914Y4275D01*
G01X62843Y4238D01*
G01X62806Y4238D01*
G01X64079Y5257D02*
G01X64079Y4494D01*
G01X64079Y5257D02*
G01X64406Y5257D01*
G01X64514Y5221D01*
G01X64552Y5184D01*
G01X64588Y5111D01*
G01X64588Y5003D01*
G01X64552Y4930D01*
G01X64514Y4894D01*
G01X64406Y4857D01*
G01X64079Y4857D01*
G01X64827Y5257D02*
G01X64864Y5221D01*
G01X64901Y5257D01*
G01X64864Y5294D01*
G01X64827Y5257D01*
G01X64864Y5003D02*
G01X64864Y4494D01*
G01X66210Y5257D02*
G01X65701Y4494D01*
G01X65701Y5257D02*
G01X66210Y5257D01*
G01X65701Y4494D02*
G01X66210Y4494D01*
G01X66450Y4784D02*
G01X66885Y4784D01*
G01X66885Y4857D01*
G01X66850Y4930D01*
G01X66814Y4965D01*
G01X66740Y5003D01*
G01X66631Y5003D01*
G01X66559Y4965D01*
G01X66485Y4894D01*
G01X66450Y4784D01*
G01X66450Y4711D01*
G01X66485Y4603D01*
G01X66559Y4530D01*
G01X66631Y4494D01*
G01X66740Y4494D01*
G01X66814Y4530D01*
G01X66885Y4603D01*
G01X67126Y5003D02*
G01X67126Y4494D01*
G01X67126Y4784D02*
G01X67163Y4894D01*
G01X67235Y4965D01*
G01X67308Y5003D01*
G01X67417Y5003D01*
G01X67839Y5003D02*
G01X67765Y4965D01*
G01X67693Y4894D01*
G01X67656Y4784D01*
G01X67656Y4711D01*
G01X67693Y4603D01*
G01X67765Y4530D01*
G01X67839Y4494D01*
G01X67947Y4494D01*
G01X68021Y4530D01*
G01X68093Y4603D01*
G01X68130Y4711D01*
G01X68130Y4784D01*
G01X68093Y4894D01*
G01X68021Y4965D01*
G01X67947Y5003D01*
G01X67839Y5003D01*
G01X68930Y5257D02*
G01X68930Y4494D01*
G01X69439Y5257D02*
G01X68930Y4748D01*
G01X69111Y4930D02*
G01X69439Y4494D01*
G01X69679Y4784D02*
G01X70114Y4784D01*
G01X70114Y4857D01*
G01X70079Y4930D01*
G01X70043Y4965D01*
G01X69969Y5003D01*
G01X69860Y5003D01*
G01X69788Y4965D01*
G01X69714Y4894D01*
G01X69679Y4784D01*
G01X69679Y4711D01*
G01X69714Y4603D01*
G01X69788Y4530D01*
G01X69860Y4494D01*
G01X69969Y4494D01*
G01X70043Y4530D01*
G01X70114Y4603D01*
G01X70392Y5003D02*
G01X70610Y4494D01*
G01X70827Y5003D02*
G01X70610Y4494D01*
G01X70536Y4348D01*
G01X70464Y4275D01*
G01X70392Y4238D01*
G01X70355Y4238D01*
G01X71068Y5257D02*
G01X71068Y4494D01*
G01X71068Y4894D02*
G01X71140Y4965D01*
G01X71214Y5003D01*
G01X71322Y5003D01*
G01X71394Y4965D01*
G01X71468Y4894D01*
G01X71505Y4784D01*
G01X71505Y4711D01*
G01X71468Y4603D01*
G01X71394Y4530D01*
G01X71322Y4494D01*
G01X71214Y4494D01*
G01X71140Y4530D01*
G01X71068Y4603D01*
G01X71926Y5003D02*
G01X71854Y4965D01*
G01X71781Y4894D01*
G01X71744Y4784D01*
G01X71744Y4711D01*
G01X71781Y4603D01*
G01X71854Y4530D01*
G01X71926Y4494D01*
G01X72035Y4494D01*
G01X72108Y4530D01*
G01X72181Y4603D01*
G01X72217Y4711D01*
G01X72217Y4784D01*
G01X72181Y4894D01*
G01X72108Y4965D01*
G01X72035Y5003D01*
G01X71926Y5003D01*
G01X72893Y5003D02*
G01X72893Y4494D01*
G01X72893Y4894D02*
G01X72821Y4965D01*
G01X72747Y5003D01*
G01X72639Y5003D01*
G01X72565Y4965D01*
G01X72493Y4894D01*
G01X72456Y4784D01*
G01X72456Y4711D01*
G01X72493Y4603D01*
G01X72565Y4530D01*
G01X72639Y4494D01*
G01X72747Y4494D01*
G01X72821Y4530D01*
G01X72893Y4603D01*
G01X73134Y5003D02*
G01X73134Y4494D01*
G01X73134Y4784D02*
G01X73169Y4894D01*
G01X73243Y4965D01*
G01X73314Y5003D01*
G01X73425Y5003D01*
G01X74101Y5257D02*
G01X74101Y4494D01*
G01X74101Y4894D02*
G01X74027Y4965D01*
G01X73955Y5003D01*
G01X73846Y5003D01*
G01X73773Y4965D01*
G01X73701Y4894D01*
G01X73664Y4784D01*
G01X73664Y4711D01*
G01X73701Y4603D01*
G01X73773Y4530D01*
G01X73846Y4494D01*
G01X73955Y4494D01*
G01X74027Y4530D01*
G01X74101Y4603D01*
G01X57650Y4057D02*
G01X57650Y3294D01*
G01X57650Y4057D02*
G01X57905Y4057D01*
G01X58014Y4021D01*
G01X58085Y3948D01*
G01X58122Y3875D01*
G01X58159Y3765D01*
G01X58159Y3584D01*
G01X58122Y3475D01*
G01X58085Y3403D01*
G01X58014Y3330D01*
G01X57905Y3294D01*
G01X57650Y3294D01*
G01X58398Y3584D02*
G01X58835Y3584D01*
G01X58835Y3657D01*
G01X58798Y3730D01*
G01X58763Y3765D01*
G01X58689Y3803D01*
G01X58581Y3803D01*
G01X58507Y3765D01*
G01X58435Y3694D01*
G01X58398Y3584D01*
G01X58398Y3511D01*
G01X58435Y3403D01*
G01X58507Y3330D01*
G01X58581Y3294D01*
G01X58689Y3294D01*
G01X58763Y3330D01*
G01X58835Y3403D01*
G01X59475Y3694D02*
G01X59439Y3765D01*
G01X59330Y3803D01*
G01X59221Y3803D01*
G01X59111Y3765D01*
G01X59075Y3694D01*
G01X59111Y3621D01*
G01X59185Y3584D01*
G01X59365Y3548D01*
G01X59439Y3511D01*
G01X59475Y3438D01*
G01X59475Y3403D01*
G01X59439Y3330D01*
G01X59330Y3294D01*
G01X59221Y3294D01*
G01X59111Y3330D01*
G01X59075Y3403D01*
G01X59714Y4057D02*
G01X59752Y4021D01*
G01X59788Y4057D01*
G01X59752Y4094D01*
G01X59714Y4057D01*
G01X59752Y3803D02*
G01X59752Y3294D01*
G01X60464Y3803D02*
G01X60464Y3221D01*
G01X60427Y3111D01*
G01X60392Y3075D01*
G01X60318Y3038D01*
G01X60210Y3038D01*
G01X60136Y3075D01*
G01X60464Y3694D02*
G01X60392Y3765D01*
G01X60318Y3803D01*
G01X60210Y3803D01*
G01X60136Y3765D01*
G01X60064Y3694D01*
G01X60027Y3584D01*
G01X60027Y3511D01*
G01X60064Y3403D01*
G01X60136Y3330D01*
G01X60210Y3294D01*
G01X60318Y3294D01*
G01X60392Y3330D01*
G01X60464Y3403D01*
G01X60705Y3803D02*
G01X60705Y3294D01*
G01X60705Y3657D02*
G01X60814Y3765D01*
G01X60885Y3803D01*
G01X60994Y3803D01*
G01X61068Y3765D01*
G01X61105Y3657D01*
G01X61105Y3294D01*
G01X61905Y4057D02*
G01X61905Y3294D01*
G01X61905Y4057D02*
G01X62231Y4057D01*
G01X62340Y4021D01*
G01X62377Y3984D01*
G01X62414Y3911D01*
G01X62414Y3838D01*
G01X62377Y3765D01*
G01X62340Y3730D01*
G01X62231Y3694D01*
G01X61905Y3694D02*
G01X62231Y3694D01*
G01X62340Y3657D01*
G01X62377Y3621D01*
G01X62414Y3548D01*
G01X62414Y3438D01*
G01X62377Y3365D01*
G01X62340Y3330D01*
G01X62231Y3294D01*
G01X61905Y3294D01*
G01X62689Y3803D02*
G01X62907Y3294D01*
G01X63126Y3803D02*
G01X62907Y3294D01*
G01X62835Y3148D01*
G01X62763Y3075D01*
G01X62689Y3038D01*
G01X62654Y3038D01*
G01X64435Y3948D02*
G01X64363Y4021D01*
G01X64254Y4057D01*
G01X64107Y4057D01*
G01X63998Y4021D01*
G01X63926Y3948D01*
G01X63926Y3875D01*
G01X63963Y3803D01*
G01X63998Y3765D01*
G01X64072Y3730D01*
G01X64289Y3657D01*
G01X64363Y3621D01*
G01X64398Y3584D01*
G01X64435Y3511D01*
G01X64435Y3403D01*
G01X64363Y3330D01*
G01X64254Y3294D01*
G01X64107Y3294D01*
G01X63998Y3330D01*
G01X63926Y3403D01*
G01X64675Y3803D02*
G01X64675Y3038D01*
G01X64675Y3694D02*
G01X64747Y3765D01*
G01X64821Y3803D01*
G01X64930Y3803D01*
G01X65002Y3765D01*
G01X65075Y3694D01*
G01X65111Y3584D01*
G01X65111Y3511D01*
G01X65075Y3403D01*
G01X65002Y3330D01*
G01X64930Y3294D01*
G01X64821Y3294D01*
G01X64747Y3330D01*
G01X64675Y3403D01*
G01X65788Y3803D02*
G01X65788Y3294D01*
G01X65788Y3694D02*
G01X65714Y3765D01*
G01X65643Y3803D01*
G01X65534Y3803D01*
G01X65460Y3765D01*
G01X65388Y3694D01*
G01X65352Y3584D01*
G01X65352Y3511D01*
G01X65388Y3403D01*
G01X65460Y3330D01*
G01X65534Y3294D01*
G01X65643Y3294D01*
G01X65714Y3330D01*
G01X65788Y3403D01*
G01X66464Y3694D02*
G01X66392Y3765D01*
G01X66318Y3803D01*
G01X66210Y3803D01*
G01X66136Y3765D01*
G01X66064Y3694D01*
G01X66027Y3584D01*
G01X66027Y3511D01*
G01X66064Y3403D01*
G01X66136Y3330D01*
G01X66210Y3294D01*
G01X66318Y3294D01*
G01X66392Y3330D01*
G01X66464Y3403D01*
G01X66705Y3584D02*
G01X67140Y3584D01*
G01X67140Y3657D01*
G01X67105Y3730D01*
G01X67068Y3765D01*
G01X66994Y3803D01*
G01X66885Y3803D01*
G01X66814Y3765D01*
G01X66740Y3694D01*
G01X66705Y3584D01*
G01X66705Y3511D01*
G01X66740Y3403D01*
G01X66814Y3330D01*
G01X66885Y3294D01*
G01X66994Y3294D01*
G01X67068Y3330D01*
G01X67140Y3403D01*
G01X67381Y4057D02*
G01X67381Y3294D01*
G01X67621Y3584D02*
G01X68056Y3584D01*
G01X68056Y3657D01*
G01X68021Y3730D01*
G01X67985Y3765D01*
G01X67911Y3803D01*
G01X67802Y3803D01*
G01X67730Y3765D01*
G01X67656Y3694D01*
G01X67621Y3584D01*
G01X67621Y3511D01*
G01X67656Y3403D01*
G01X67730Y3330D01*
G01X67802Y3294D01*
G01X67911Y3294D01*
G01X67985Y3330D01*
G01X68056Y3403D01*
G01X68697Y3694D02*
G01X68660Y3765D01*
G01X68552Y3803D01*
G01X68443Y3803D01*
G01X68334Y3765D01*
G01X68297Y3694D01*
G01X68334Y3621D01*
G01X68406Y3584D01*
G01X68588Y3548D01*
G01X68660Y3511D01*
G01X68697Y3438D01*
G01X68697Y3403D01*
G01X68660Y3330D01*
G01X68552Y3294D01*
G01X68443Y3294D01*
G01X68334Y3330D01*
G01X68297Y3403D01*
G01X69336Y3694D02*
G01X69301Y3765D01*
G01X69192Y3803D01*
G01X69083Y3803D01*
G01X68973Y3765D01*
G01X68936Y3694D01*
G01X68973Y3621D01*
G01X69046Y3584D01*
G01X69227Y3548D01*
G01X69301Y3511D01*
G01X69336Y3438D01*
G01X69336Y3403D01*
G01X69301Y3330D01*
G01X69192Y3294D01*
G01X69083Y3294D01*
G01X68973Y3330D01*
G01X68936Y3403D01*
G36*
G01X5609Y25426D02*
G01X5959Y25426D01*
G01X5959Y24876D01*
G01X5609Y24876D01*
G01X5609Y25426D01*
G37*
G36*
G01X6359Y25426D02*
G01X6709Y25426D01*
G01X6709Y24876D01*
G01X6359Y24876D01*
G01X6359Y25426D01*
G37*
G36*
G01X23609Y2826D02*
G01X23959Y2826D01*
G01X23959Y2276D01*
G01X23609Y2276D01*
G01X23609Y2826D01*
G37*
G36*
G01X24359Y2826D02*
G01X24709Y2826D01*
G01X24709Y2276D01*
G01X24359Y2276D01*
G01X24359Y2826D01*
G37*
G36*
G01X14259Y2776D02*
G01X14609Y2776D01*
G01X14609Y2226D01*
G01X14259Y2226D01*
G01X14259Y2776D01*
G37*
G36*
G01X15009Y2776D02*
G01X15359Y2776D01*
G01X15359Y2226D01*
G01X15009Y2226D01*
G01X15009Y2776D01*
G37*
G36*
G01X4809Y2826D02*
G01X5159Y2826D01*
G01X5159Y2276D01*
G01X4809Y2276D01*
G01X4809Y2826D01*
G37*
G36*
G01X5559Y2826D02*
G01X5909Y2826D01*
G01X5909Y2276D01*
G01X5559Y2276D01*
G01X5559Y2826D01*
G37*
G36*
G01X58259Y10276D02*
G01X58609Y10276D01*
G01X58609Y9726D01*
G01X58259Y9726D01*
G01X58259Y10276D01*
G37*
G36*
G01X59009Y10276D02*
G01X59359Y10276D01*
G01X59359Y9726D01*
G01X59009Y9726D01*
G01X59009Y10276D01*
G37*
G36*
G01X50709Y10276D02*
G01X51059Y10276D01*
G01X51059Y9726D01*
G01X50709Y9726D01*
G01X50709Y10276D01*
G37*
G36*
G01X51459Y10276D02*
G01X51809Y10276D01*
G01X51809Y9726D01*
G01X51459Y9726D01*
G01X51459Y10276D01*
G37*
G36*
G01X35859Y10276D02*
G01X36209Y10276D01*
G01X36209Y9726D01*
G01X35859Y9726D01*
G01X35859Y10276D01*
G37*
G36*
G01X36609Y10276D02*
G01X36959Y10276D01*
G01X36959Y9726D01*
G01X36609Y9726D01*
G01X36609Y10276D01*
G37*
G36*
G01X86409Y32776D02*
G01X86759Y32776D01*
G01X86759Y32226D01*
G01X86409Y32226D01*
G01X86409Y32776D01*
G37*
G36*
G01X87159Y32776D02*
G01X87509Y32776D01*
G01X87509Y32226D01*
G01X87159Y32226D01*
G01X87159Y32776D01*
G37*
G36*
G01X93859Y32776D02*
G01X94209Y32776D01*
G01X94209Y32226D01*
G01X93859Y32226D01*
G01X93859Y32776D01*
G37*
G36*
G01X94609Y32776D02*
G01X94959Y32776D01*
G01X94959Y32226D01*
G01X94609Y32226D01*
G01X94609Y32776D01*
G37*
G36*
G01X105159Y32776D02*
G01X105509Y32776D01*
G01X105509Y32226D01*
G01X105159Y32226D01*
G01X105159Y32776D01*
G37*
G36*
G01X105909Y32776D02*
G01X106259Y32776D01*
G01X106259Y32226D01*
G01X105909Y32226D01*
G01X105909Y32776D01*
G37*
G36*
G01X90459Y25326D02*
G01X90809Y25326D01*
G01X90809Y24776D01*
G01X90459Y24776D01*
G01X90459Y25326D01*
G37*
G36*
G01X91209Y25326D02*
G01X91559Y25326D01*
G01X91559Y24776D01*
G01X91209Y24776D01*
G01X91209Y25326D01*
G37*
G36*
G01X97859Y25426D02*
G01X98209Y25426D01*
G01X98209Y24876D01*
G01X97859Y24876D01*
G01X97859Y25426D01*
G37*
G36*
G01X98609Y25426D02*
G01X98959Y25426D01*
G01X98959Y24876D01*
G01X98609Y24876D01*
G01X98609Y25426D01*
G37*
G36*
G01X107109Y25326D02*
G01X107459Y25326D01*
G01X107459Y24776D01*
G01X107109Y24776D01*
G01X107109Y25326D01*
G37*
G36*
G01X107859Y25326D02*
G01X108209Y25326D01*
G01X108209Y24776D01*
G01X107859Y24776D01*
G01X107859Y25326D01*
G37*
G36*
G01X84509Y17726D02*
G01X84859Y17726D01*
G01X84859Y17176D01*
G01X84509Y17176D01*
G01X84509Y17726D01*
G37*
G36*
G01X85259Y17726D02*
G01X85609Y17726D01*
G01X85609Y17176D01*
G01X85259Y17176D01*
G01X85259Y17726D01*
G37*
G36*
G01X92009Y17726D02*
G01X92359Y17726D01*
G01X92359Y17176D01*
G01X92009Y17176D01*
G01X92009Y17726D01*
G37*
G36*
G01X92759Y17726D02*
G01X93109Y17726D01*
G01X93109Y17176D01*
G01X92759Y17176D01*
G01X92759Y17726D01*
G37*
G36*
G01X104209Y17726D02*
G01X104559Y17726D01*
G01X104559Y17176D01*
G01X104209Y17176D01*
G01X104209Y17726D01*
G37*
G36*
G01X104959Y17726D02*
G01X105309Y17726D01*
G01X105309Y17176D01*
G01X104959Y17176D01*
G01X104959Y17726D01*
G37*
G36*
G01X79859Y2826D02*
G01X80209Y2826D01*
G01X80209Y2276D01*
G01X79859Y2276D01*
G01X79859Y2826D01*
G37*
G36*
G01X80609Y2826D02*
G01X80959Y2826D01*
G01X80959Y2276D01*
G01X80609Y2276D01*
G01X80609Y2826D01*
G37*
G36*
G01X89209Y2776D02*
G01X89559Y2776D01*
G01X89559Y2226D01*
G01X89209Y2226D01*
G01X89209Y2776D01*
G37*
G36*
G01X89959Y2776D02*
G01X90309Y2776D01*
G01X90309Y2226D01*
G01X89959Y2226D01*
G01X89959Y2776D01*
G37*
G36*
G01X98609Y2776D02*
G01X98959Y2776D01*
G01X98959Y2226D01*
G01X98609Y2226D01*
G01X98609Y2776D01*
G37*
G36*
G01X99359Y2776D02*
G01X99709Y2776D01*
G01X99709Y2226D01*
G01X99359Y2226D01*
G01X99359Y2776D01*
G37*
G36*
G01X107909Y2726D02*
G01X108259Y2726D01*
G01X108259Y2176D01*
G01X107909Y2176D01*
G01X107909Y2726D01*
G37*
G36*
G01X108659Y2726D02*
G01X109009Y2726D01*
G01X109009Y2176D01*
G01X108659Y2176D01*
G01X108659Y2726D01*
G37*
G36*
G01X102309Y10276D02*
G01X102659Y10276D01*
G01X102659Y9726D01*
G01X102309Y9726D01*
G01X102309Y10276D01*
G37*
G36*
G01X103059Y10276D02*
G01X103409Y10276D01*
G01X103409Y9726D01*
G01X103059Y9726D01*
G01X103059Y10276D01*
G37*
G36*
G01X88259Y10276D02*
G01X88609Y10276D01*
G01X88609Y9726D01*
G01X88259Y9726D01*
G01X88259Y10276D01*
G37*
G36*
G01X89009Y10276D02*
G01X89359Y10276D01*
G01X89359Y9726D01*
G01X89009Y9726D01*
G01X89009Y10276D01*
G37*
G36*
G01X80759Y10276D02*
G01X81109Y10276D01*
G01X81109Y9726D01*
G01X80759Y9726D01*
G01X80759Y10276D01*
G37*
G36*
G01X81509Y10276D02*
G01X81859Y10276D01*
G01X81859Y9726D01*
G01X81509Y9726D01*
G01X81509Y10276D01*
G37*
G36*
G01X73259Y10226D02*
G01X73609Y10226D01*
G01X73609Y9676D01*
G01X73259Y9676D01*
G01X73259Y10226D01*
G37*
G36*
G01X74009Y10226D02*
G01X74359Y10226D01*
G01X74359Y9676D01*
G01X74009Y9676D01*
G01X74009Y10226D01*
G37*
G36*
G01X65809Y10226D02*
G01X66159Y10226D01*
G01X66159Y9676D01*
G01X65809Y9676D01*
G01X65809Y10226D01*
G37*
G36*
G01X66559Y10226D02*
G01X66909Y10226D01*
G01X66909Y9676D01*
G01X66559Y9676D01*
G01X66559Y10226D01*
G37*
G36*
G01X77009Y17826D02*
G01X77359Y17826D01*
G01X77359Y17276D01*
G01X77009Y17276D01*
G01X77009Y17826D01*
G37*
G36*
G01X77759Y17826D02*
G01X78109Y17826D01*
G01X78109Y17276D01*
G01X77759Y17276D01*
G01X77759Y17826D01*
G37*
G36*
G01X83109Y25426D02*
G01X83459Y25426D01*
G01X83459Y24876D01*
G01X83109Y24876D01*
G01X83109Y25426D01*
G37*
G36*
G01X83859Y25426D02*
G01X84209Y25426D01*
G01X84209Y24876D01*
G01X83859Y24876D01*
G01X83859Y25426D01*
G37*
G36*
G01X78909Y32776D02*
G01X79259Y32776D01*
G01X79259Y32226D01*
G01X78909Y32226D01*
G01X78909Y32776D01*
G37*
G36*
G01X79659Y32776D02*
G01X80009Y32776D01*
G01X80009Y32226D01*
G01X79659Y32226D01*
G01X79659Y32776D01*
G37*
G36*
G01X75159Y25276D02*
G01X75509Y25276D01*
G01X75509Y24726D01*
G01X75159Y24726D01*
G01X75159Y25276D01*
G37*
G36*
G01X75909Y25276D02*
G01X76259Y25276D01*
G01X76259Y24726D01*
G01X75909Y24726D01*
G01X75909Y25276D01*
G37*
G36*
G01X71359Y32726D02*
G01X71709Y32726D01*
G01X71709Y32176D01*
G01X71359Y32176D01*
G01X71359Y32726D01*
G37*
G36*
G01X72109Y32726D02*
G01X72459Y32726D01*
G01X72459Y32176D01*
G01X72109Y32176D01*
G01X72109Y32726D01*
G37*
G36*
G01X67709Y25526D02*
G01X68059Y25526D01*
G01X68059Y24976D01*
G01X67709Y24976D01*
G01X67709Y25526D01*
G37*
G36*
G01X68459Y25526D02*
G01X68809Y25526D01*
G01X68809Y24976D01*
G01X68459Y24976D01*
G01X68459Y25526D01*
G37*
G36*
G01X69459Y17776D02*
G01X69809Y17776D01*
G01X69809Y17226D01*
G01X69459Y17226D01*
G01X69459Y17776D01*
G37*
G36*
G01X70209Y17776D02*
G01X70559Y17776D01*
G01X70559Y17226D01*
G01X70209Y17226D01*
G01X70209Y17776D01*
G37*
G36*
G01X37809Y25326D02*
G01X38159Y25326D01*
G01X38159Y24776D01*
G01X37809Y24776D01*
G01X37809Y25326D01*
G37*
G36*
G01X38559Y25326D02*
G01X38909Y25326D01*
G01X38909Y24776D01*
G01X38559Y24776D01*
G01X38559Y25326D01*
G37*
G36*
G01X61959Y17776D02*
G01X62309Y17776D01*
G01X62309Y17226D01*
G01X61959Y17226D01*
G01X61959Y17776D01*
G37*
G36*
G01X62709Y17776D02*
G01X63059Y17776D01*
G01X63059Y17226D01*
G01X62709Y17226D01*
G01X62709Y17776D01*
G37*
G36*
G01X60109Y25276D02*
G01X60459Y25276D01*
G01X60459Y24726D01*
G01X60109Y24726D01*
G01X60109Y25276D01*
G37*
G36*
G01X60859Y25276D02*
G01X61209Y25276D01*
G01X61209Y24726D01*
G01X60859Y24726D01*
G01X60859Y25276D01*
G37*
G36*
G01X63859Y32726D02*
G01X64209Y32726D01*
G01X64209Y32176D01*
G01X63859Y32176D01*
G01X63859Y32726D01*
G37*
G36*
G01X64609Y32726D02*
G01X64959Y32726D01*
G01X64959Y32176D01*
G01X64609Y32176D01*
G01X64609Y32726D01*
G37*
G36*
G01X56359Y32776D02*
G01X56709Y32776D01*
G01X56709Y32226D01*
G01X56359Y32226D01*
G01X56359Y32776D01*
G37*
G36*
G01X57109Y32776D02*
G01X57459Y32776D01*
G01X57459Y32226D01*
G01X57109Y32226D01*
G01X57109Y32776D01*
G37*
G36*
G01X52909Y25426D02*
G01X53259Y25426D01*
G01X53259Y24876D01*
G01X52909Y24876D01*
G01X52909Y25426D01*
G37*
G36*
G01X53659Y25426D02*
G01X54009Y25426D01*
G01X54009Y24876D01*
G01X53659Y24876D01*
G01X53659Y25426D01*
G37*
G36*
G01X54509Y17776D02*
G01X54859Y17776D01*
G01X54859Y17226D01*
G01X54509Y17226D01*
G01X54509Y17776D01*
G37*
G36*
G01X55259Y17776D02*
G01X55609Y17776D01*
G01X55609Y17226D01*
G01X55259Y17226D01*
G01X55259Y17776D01*
G37*
G36*
G01X39509Y17826D02*
G01X39859Y17826D01*
G01X39859Y17276D01*
G01X39509Y17276D01*
G01X39509Y17826D01*
G37*
G36*
G01X40259Y17826D02*
G01X40609Y17826D01*
G01X40609Y17276D01*
G01X40259Y17276D01*
G01X40259Y17826D01*
G37*
G36*
G01X3859Y32726D02*
G01X4209Y32726D01*
G01X4209Y32176D01*
G01X3859Y32176D01*
G01X3859Y32726D01*
G37*
G36*
G01X4609Y32726D02*
G01X4959Y32726D01*
G01X4959Y32176D01*
G01X4609Y32176D01*
G01X4609Y32726D01*
G37*
G36*
G01X48859Y32726D02*
G01X49209Y32726D01*
G01X49209Y32176D01*
G01X48859Y32176D01*
G01X48859Y32726D01*
G37*
G36*
G01X49609Y32726D02*
G01X49959Y32726D01*
G01X49959Y32176D01*
G01X49609Y32176D01*
G01X49609Y32726D01*
G37*
G36*
G01X33859Y32726D02*
G01X34209Y32726D01*
G01X34209Y32176D01*
G01X33859Y32176D01*
G01X33859Y32726D01*
G37*
G36*
G01X34609Y32726D02*
G01X34959Y32726D01*
G01X34959Y32176D01*
G01X34609Y32176D01*
G01X34609Y32726D01*
G37*
G36*
G01X28359Y10326D02*
G01X28709Y10326D01*
G01X28709Y9776D01*
G01X28359Y9776D01*
G01X28359Y10326D01*
G37*
G36*
G01X29109Y10326D02*
G01X29459Y10326D01*
G01X29459Y9776D01*
G01X29109Y9776D01*
G01X29109Y10326D01*
G37*
G36*
G01X32059Y17826D02*
G01X32409Y17826D01*
G01X32409Y17276D01*
G01X32059Y17276D01*
G01X32059Y17826D01*
G37*
G36*
G01X32809Y17826D02*
G01X33159Y17826D01*
G01X33159Y17276D01*
G01X32809Y17276D01*
G01X32809Y17826D01*
G37*
G36*
G01X30059Y25676D02*
G01X30409Y25676D01*
G01X30409Y25126D01*
G01X30059Y25126D01*
G01X30059Y25676D01*
G37*
G36*
G01X30809Y25676D02*
G01X31159Y25676D01*
G01X31159Y25126D01*
G01X30809Y25126D01*
G01X30809Y25676D01*
G37*
G36*
G01X26359Y32726D02*
G01X26709Y32726D01*
G01X26709Y32176D01*
G01X26359Y32176D01*
G01X26359Y32726D01*
G37*
G36*
G01X27109Y32726D02*
G01X27459Y32726D01*
G01X27459Y32176D01*
G01X27109Y32176D01*
G01X27109Y32726D01*
G37*
G36*
G01X43309Y10276D02*
G01X43659Y10276D01*
G01X43659Y9726D01*
G01X43309Y9726D01*
G01X43309Y10276D01*
G37*
G36*
G01X44059Y10276D02*
G01X44409Y10276D01*
G01X44409Y9726D01*
G01X44059Y9726D01*
G01X44059Y10276D01*
G37*
G36*
G01X47009Y17776D02*
G01X47359Y17776D01*
G01X47359Y17226D01*
G01X47009Y17226D01*
G01X47009Y17776D01*
G37*
G36*
G01X47759Y17776D02*
G01X48109Y17776D01*
G01X48109Y17226D01*
G01X47759Y17226D01*
G01X47759Y17776D01*
G37*
G36*
G01X44959Y25426D02*
G01X45309Y25426D01*
G01X45309Y24876D01*
G01X44959Y24876D01*
G01X44959Y25426D01*
G37*
G36*
G01X45709Y25426D02*
G01X46059Y25426D01*
G01X46059Y24876D01*
G01X45709Y24876D01*
G01X45709Y25426D01*
G37*
G36*
G01X41359Y32726D02*
G01X41709Y32726D01*
G01X41709Y32176D01*
G01X41359Y32176D01*
G01X41359Y32726D01*
G37*
G36*
G01X42109Y32726D02*
G01X42459Y32726D01*
G01X42459Y32176D01*
G01X42109Y32176D01*
G01X42109Y32726D01*
G37*
G36*
G01X20759Y10276D02*
G01X21109Y10276D01*
G01X21109Y9726D01*
G01X20759Y9726D01*
G01X20759Y10276D01*
G37*
G36*
G01X21509Y10276D02*
G01X21859Y10276D01*
G01X21859Y9726D01*
G01X21509Y9726D01*
G01X21509Y10276D01*
G37*
G36*
G01X24559Y17826D02*
G01X24909Y17826D01*
G01X24909Y17276D01*
G01X24559Y17276D01*
G01X24559Y17826D01*
G37*
G36*
G01X25309Y17826D02*
G01X25659Y17826D01*
G01X25659Y17276D01*
G01X25309Y17276D01*
G01X25309Y17826D01*
G37*
G36*
G01X22459Y25626D02*
G01X22809Y25626D01*
G01X22809Y25076D01*
G01X22459Y25076D01*
G01X22459Y25626D01*
G37*
G36*
G01X23209Y25626D02*
G01X23559Y25626D01*
G01X23559Y25076D01*
G01X23209Y25076D01*
G01X23209Y25626D01*
G37*
G36*
G01X17009Y17826D02*
G01X17359Y17826D01*
G01X17359Y17276D01*
G01X17009Y17276D01*
G01X17009Y17826D01*
G37*
G36*
G01X17759Y17826D02*
G01X18109Y17826D01*
G01X18109Y17276D01*
G01X17759Y17276D01*
G01X17759Y17826D01*
G37*
G36*
G01X14909Y25276D02*
G01X15259Y25276D01*
G01X15259Y24726D01*
G01X14909Y24726D01*
G01X14909Y25276D01*
G37*
G36*
G01X15659Y25276D02*
G01X16009Y25276D01*
G01X16009Y24726D01*
G01X15659Y24726D01*
G01X15659Y25276D01*
G37*
G36*
G01X8609Y10276D02*
G01X8959Y10276D01*
G01X8959Y9726D01*
G01X8609Y9726D01*
G01X8609Y10276D01*
G37*
G36*
G01X9359Y10276D02*
G01X9709Y10276D01*
G01X9709Y9726D01*
G01X9359Y9726D01*
G01X9359Y10276D01*
G37*
G36*
G01X6759Y17926D02*
G01X7109Y17926D01*
G01X7109Y17376D01*
G01X6759Y17376D01*
G01X6759Y17926D01*
G37*
G36*
G01X7509Y17926D02*
G01X7859Y17926D01*
G01X7859Y17376D01*
G01X7509Y17376D01*
G01X7509Y17926D01*
G37*
G36*
G01X18859Y32726D02*
G01X19209Y32726D01*
G01X19209Y32176D01*
G01X18859Y32176D01*
G01X18859Y32726D01*
G37*
G36*
G01X19609Y32726D02*
G01X19959Y32726D01*
G01X19959Y32176D01*
G01X19609Y32176D01*
G01X19609Y32726D01*
G37*
G36*
G01X11409Y32776D02*
G01X11759Y32776D01*
G01X11759Y32226D01*
G01X11409Y32226D01*
G01X11409Y32776D01*
G37*
G36*
G01X12159Y32776D02*
G01X12509Y32776D01*
G01X12509Y32226D01*
G01X12159Y32226D01*
G01X12159Y32776D01*
G37*
G36*
G01X51709Y2776D02*
G01X52059Y2776D01*
G01X52059Y2226D01*
G01X51709Y2226D01*
G01X51709Y2776D01*
G37*
G36*
G01X52459Y2776D02*
G01X52809Y2776D01*
G01X52809Y2226D01*
G01X52459Y2226D01*
G01X52459Y2776D01*
G37*
G36*
G01X18859Y43976D02*
G01X19209Y43976D01*
G01X19209Y43426D01*
G01X18859Y43426D01*
G01X18859Y43976D01*
G37*
G36*
G01X19609Y43976D02*
G01X19959Y43976D01*
G01X19959Y43426D01*
G01X19609Y43426D01*
G01X19609Y43976D01*
G37*
G36*
G01X26309Y43976D02*
G01X26659Y43976D01*
G01X26659Y43426D01*
G01X26309Y43426D01*
G01X26309Y43976D01*
G37*
G36*
G01X27059Y43976D02*
G01X27409Y43976D01*
G01X27409Y43426D01*
G01X27059Y43426D01*
G01X27059Y43976D01*
G37*
G36*
G01X52609Y43976D02*
G01X52959Y43976D01*
G01X52959Y43426D01*
G01X52609Y43426D01*
G01X52609Y43976D01*
G37*
G36*
G01X53359Y43976D02*
G01X53709Y43976D01*
G01X53709Y43426D01*
G01X53359Y43426D01*
G01X53359Y43976D01*
G37*
G36*
G01X33859Y43976D02*
G01X34209Y43976D01*
G01X34209Y43426D01*
G01X33859Y43426D01*
G01X33859Y43976D01*
G37*
G36*
G01X34609Y43976D02*
G01X34959Y43976D01*
G01X34959Y43426D01*
G01X34609Y43426D01*
G01X34609Y43976D01*
G37*
G36*
G01X41359Y43976D02*
G01X41709Y43976D01*
G01X41709Y43426D01*
G01X41359Y43426D01*
G01X41359Y43976D01*
G37*
G36*
G01X42109Y43976D02*
G01X42459Y43976D01*
G01X42459Y43426D01*
G01X42109Y43426D01*
G01X42109Y43976D01*
G37*
G36*
G01X60109Y43976D02*
G01X60459Y43976D01*
G01X60459Y43426D01*
G01X60109Y43426D01*
G01X60109Y43976D01*
G37*
G36*
G01X60859Y43976D02*
G01X61209Y43976D01*
G01X61209Y43426D01*
G01X60859Y43426D01*
G01X60859Y43976D01*
G37*
G36*
G01X3859Y44576D02*
G01X4209Y44576D01*
G01X4209Y44026D01*
G01X3859Y44026D01*
G01X3859Y44576D01*
G37*
G36*
G01X4609Y44576D02*
G01X4959Y44576D01*
G01X4959Y44026D01*
G01X4609Y44026D01*
G01X4609Y44576D01*
G37*
G36*
G01X67659Y43976D02*
G01X68009Y43976D01*
G01X68009Y43426D01*
G01X67659Y43426D01*
G01X67659Y43976D01*
G37*
G36*
G01X68409Y43976D02*
G01X68759Y43976D01*
G01X68759Y43426D01*
G01X68409Y43426D01*
G01X68409Y43976D01*
G37*
G36*
G01X75109Y43976D02*
G01X75459Y43976D01*
G01X75459Y43426D01*
G01X75109Y43426D01*
G01X75109Y43976D01*
G37*
G36*
G01X75859Y43976D02*
G01X76209Y43976D01*
G01X76209Y43426D01*
G01X75859Y43426D01*
G01X75859Y43976D01*
G37*
G36*
G01X86409Y43976D02*
G01X86759Y43976D01*
G01X86759Y43426D01*
G01X86409Y43426D01*
G01X86409Y43976D01*
G37*
G36*
G01X87159Y43976D02*
G01X87509Y43976D01*
G01X87509Y43426D01*
G01X87159Y43426D01*
G01X87159Y43976D01*
G37*
G36*
G01X93859Y43976D02*
G01X94209Y43976D01*
G01X94209Y43426D01*
G01X93859Y43426D01*
G01X93859Y43976D01*
G37*
G36*
G01X94609Y43976D02*
G01X94959Y43976D01*
G01X94959Y43426D01*
G01X94609Y43426D01*
G01X94609Y43976D01*
G37*
G36*
G01X108859Y44026D02*
G01X109209Y44026D01*
G01X109209Y43476D01*
G01X108859Y43476D01*
G01X108859Y44026D01*
G37*
G36*
G01X109609Y44026D02*
G01X109959Y44026D01*
G01X109959Y43476D01*
G01X109609Y43476D01*
G01X109609Y44026D01*
G37*
G36*
G01X101409Y43976D02*
G01X101759Y43976D01*
G01X101759Y43426D01*
G01X101409Y43426D01*
G01X101409Y43976D01*
G37*
G36*
G01X102159Y43976D02*
G01X102509Y43976D01*
G01X102509Y43426D01*
G01X102159Y43426D01*
G01X102159Y43976D01*
G37*
G54D13*
G01X103246Y14138D03*
G01X100746Y13138D03*
G01X29196Y14138D03*
G01X26696Y13138D03*
G01X49796Y36638D03*
G01X47296Y35638D03*
G01X64796Y36638D03*
G01X62296Y35638D03*
G01X105146Y21638D03*
G01X102646Y20638D03*
G01X9496Y14138D03*
G01X6996Y13138D03*
G01X52609Y6601D03*
G01X50109Y5601D03*
G01X108859Y6651D03*
G01X106359Y5651D03*
G01X90146Y6638D03*
G01X87646Y5638D03*
G01X80746Y6638D03*
G01X78246Y5638D03*
G01X24496Y6638D03*
G01X21996Y5638D03*
G01X15146Y6638D03*
G01X12646Y5638D03*
G01X5746Y6638D03*
G01X3246Y5638D03*
G01X89196Y14138D03*
G01X86696Y13138D03*
G01X81696Y14138D03*
G01X79196Y13138D03*
G01X74196Y14138D03*
G01X71696Y13138D03*
G01X66696Y14138D03*
G01X64196Y13138D03*
G01X59196Y14138D03*
G01X56696Y13138D03*
G01X51696Y14138D03*
G01X49196Y13138D03*
G01X44196Y14138D03*
G01X41696Y13138D03*
G01X36696Y14138D03*
G01X34196Y13138D03*
G01X21696Y14138D03*
G01X19196Y13138D03*
G01X92946Y21638D03*
G01X90446Y20638D03*
G01X85446Y21638D03*
G01X82946Y20638D03*
G01X77946Y21638D03*
G01X75446Y20638D03*
G01X70446Y21638D03*
G01X67946Y20638D03*
G01X62946Y21638D03*
G01X60446Y20638D03*
G01X55446Y21638D03*
G01X52946Y20638D03*
G01X47946Y21638D03*
G01X45446Y20638D03*
G01X40446Y21638D03*
G01X37946Y20638D03*
G01X32946Y21638D03*
G01X30446Y20638D03*
G01X25446Y21638D03*
G01X22946Y20638D03*
G01X17946Y21638D03*
G01X15446Y20638D03*
G01X6696Y29138D03*
G01X4196Y28138D03*
G01X107946Y29138D03*
G01X105446Y28138D03*
G01X98546Y29138D03*
G01X96046Y28138D03*
G01X91046Y29138D03*
G01X88546Y28138D03*
G01X83546Y29138D03*
G01X81046Y28138D03*
G01X76046Y29138D03*
G01X73546Y28138D03*
G01X68546Y29138D03*
G01X66046Y28138D03*
G01X61046Y29138D03*
G01X58546Y28138D03*
G01X53546Y29138D03*
G01X51046Y28138D03*
G01X46046Y29138D03*
G01X43546Y28138D03*
G01X38546Y29138D03*
G01X36046Y28138D03*
G01X31046Y29138D03*
G01X28546Y28138D03*
G01X23546Y29138D03*
G01X21046Y28138D03*
G01X16046Y29138D03*
G01X13546Y28138D03*
G01X7646Y21638D03*
G01X5146Y20638D03*
G01X106046Y36638D03*
G01X103546Y35638D03*
G01X94796Y36638D03*
G01X92296Y35638D03*
G01X87296Y36638D03*
G01X84796Y35638D03*
G01X79796Y36638D03*
G01X77296Y35638D03*
G01X72296Y36638D03*
G01X69796Y35638D03*
G01X57296Y36638D03*
G01X54796Y35638D03*
G01X42296Y36638D03*
G01X39796Y35638D03*
G01X34796Y36638D03*
G01X32296Y35638D03*
G01X27296Y36638D03*
G01X24796Y35638D03*
G01X19796Y36638D03*
G01X17296Y35638D03*
G01X12296Y36638D03*
G01X9796Y35638D03*
G01X4796Y36638D03*
G01X2296Y35638D03*
G01X4796Y47888D03*
G01X2296Y46888D03*
G01X19796Y47888D03*
G01X17296Y46888D03*
G01X27296Y47888D03*
G01X24796Y46888D03*
G01X34796Y47888D03*
G01X32296Y46888D03*
G01X42296Y47888D03*
G01X39796Y46888D03*
G01X53546Y47888D03*
G01X51046Y46888D03*
G01X68546Y47888D03*
G01X66046Y46888D03*
G01X87296Y47888D03*
G01X84796Y46888D03*
G01X94796Y47888D03*
G01X92296Y46888D03*
G01X102296Y47888D03*
G01X99796Y46888D03*
G01X109796Y47888D03*
G01X107296Y46888D03*
G01X76046Y47888D03*
G01X73546Y46888D03*
G01X61046Y47888D03*
G01X58546Y46888D03*
G54D14*
G01X4309Y54151D03*
G01X4309Y53151D03*
G01X5309Y54151D03*
G01X5309Y53151D03*
G01X6309Y54151D03*
G01X6309Y53151D03*
G01X7309Y54151D03*
G01X7309Y53151D03*
G01X8309Y54151D03*
G01X8309Y53151D03*
G01X9309Y54151D03*
G01X9309Y53151D03*
G01X10309Y54151D03*
G01X10309Y53151D03*
G01X11309Y54151D03*
G01X11309Y53151D03*
G01X12309Y54151D03*
G01X12309Y53151D03*
G01X13309Y54151D03*
G01X13309Y53151D03*
G01X14309Y54151D03*
G01X14309Y53151D03*
G01X15309Y54151D03*
G01X15309Y53151D03*
G01X16309Y54151D03*
G01X16309Y53151D03*
G01X17309Y54151D03*
G01X17309Y53151D03*
G01X18309Y54151D03*
G01X18309Y53151D03*
G01X19309Y54151D03*
G01X19309Y53151D03*
G01X20309Y54151D03*
G01X20309Y53151D03*
G01X21309Y54151D03*
G01X21309Y53151D03*
G01X22309Y54151D03*
G01X22309Y53151D03*
G54D15*
G01X23309Y54151D03*
G54D14*
G01X23309Y53151D03*
G01X115909Y10101D03*
G01X114909Y10101D03*
G01X115909Y11101D03*
G01X114909Y11101D03*
G01X115909Y12101D03*
G01X114909Y12101D03*
G01X115909Y13101D03*
G01X114909Y13101D03*
G01X115909Y14101D03*
G01X114909Y14101D03*
G01X115909Y15101D03*
G01X114909Y15101D03*
G01X115909Y16101D03*
G01X114909Y16101D03*
G01X115909Y17101D03*
G01X114909Y17101D03*
G01X115909Y18101D03*
G01X114909Y18101D03*
G01X115909Y19101D03*
G01X114909Y19101D03*
G01X115909Y20101D03*
G01X114909Y20101D03*
G01X115909Y21101D03*
G01X114909Y21101D03*
G01X115909Y22101D03*
G01X114909Y22101D03*
G01X115909Y23101D03*
G01X114909Y23101D03*
G01X115909Y24101D03*
G01X114909Y24101D03*
G01X115909Y25101D03*
G01X114909Y25101D03*
G01X115909Y26101D03*
G01X114909Y26101D03*
G01X115909Y27101D03*
G01X114909Y27101D03*
G01X115909Y28101D03*
G01X114909Y28101D03*
G01X115909Y29101D03*
G01X114909Y29101D03*
G54D13*
G01X99509Y6651D03*
G01X97009Y5651D03*
G54D12*
G01X44809Y9155D03*
G01X43772Y15251D03*
G01X109239Y14794D03*
G01X90533Y14794D03*
G01X71716Y52451D03*
G01X115712Y52451D03*
G01X108606Y15167D03*
G01X84286Y15000D03*
G01X99774Y12396D03*
G01X89253Y54648D03*
G01X90578Y54805D03*
G01X101719Y13032D03*
G01X109896Y16044D03*
G01X37992Y16909D03*
G01X38534Y16450D03*
G01X110254Y16419D03*
G01X112684Y52776D03*
G01X112927Y51934D03*
G01X115563Y18446D03*
G01X103205Y55375D03*
G01X109157Y15951D03*
G01X38221Y15913D03*
G01X59359Y40451D03*
G01X110289Y55053D03*
G01X109867Y55705D03*
G01X111364Y27646D03*
G01X10159Y33048D03*
G01X7585Y33205D03*
G01X103409Y51330D03*
G01X61405Y43701D03*
G01X53214Y43315D03*
G01X27234Y44161D03*
G01X10624Y20638D03*
G01X8571Y26051D03*
G01X12598Y26051D03*
G01X12334Y32030D03*
G01X19305Y35801D03*
G01X19602Y32907D03*
G01X16036Y25465D03*
G01X17934Y18015D03*
G01X23028Y25638D03*
G01X25484Y18011D03*
G01X42521Y33480D03*
G01X46147Y25605D03*
G01X47599Y17115D03*
G01X41374Y31992D03*
G01X44982Y25617D03*
G01X47224Y17973D03*
G01X106469Y16973D03*
G01X43126Y10017D03*
G01X42872Y35319D03*
G01X47259Y42742D03*
G01X30622Y25698D03*
G01X33169Y18013D03*
G01X29460Y25738D03*
G01X29669Y17936D03*
G01X28534Y10519D03*
G01X31503Y24909D03*
G01X28897Y32065D03*
G01X40888Y17165D03*
G01X55775Y17886D03*
G01X53364Y25688D03*
G01X64854Y32907D03*
G01X60754Y25432D03*
G01X62884Y17971D03*
G01X39070Y25436D03*
G01X70384Y17971D03*
G01X68871Y25713D03*
G01X76084Y25471D03*
G01X84104Y25607D03*
G01X78103Y18169D03*
G01X64034Y31988D03*
G01X67617Y25698D03*
G01X69550Y17971D03*
G01X69746Y13376D03*
G01X21269Y51117D03*
G01X62912Y51117D03*
G01X109371Y15478D03*
G01X67752Y24613D03*
G01X71349Y31982D03*
G01X75166Y25459D03*
G01X77540Y17165D03*
G01X69611Y43315D03*
G01X73326Y10411D03*
G01X111040Y16594D03*
G01X77540Y15323D03*
G01X76223Y20332D03*
G01X81748Y10478D03*
G01X89550Y10313D03*
G01X90134Y2961D03*
G01X92934Y17913D03*
G01X85787Y17836D03*
G01X71433Y53565D03*
G01X76322Y44126D03*
G01X84754Y17919D03*
G01X78649Y33251D03*
G01X79656Y24765D03*
G01X84858Y10673D03*
G01X107659Y25113D03*
G01X98902Y25607D03*
G01X91559Y25515D03*
G01X116594Y8407D03*
G01X105713Y17134D03*
G01X102541Y10471D03*
G01X106419Y24551D03*
G01X105340Y31917D03*
G01X91908Y53828D03*
G01X109729Y2065D03*
G01X94034Y32030D03*
G01X98544Y41651D03*
G01X93980Y21269D03*
G01X92660Y31915D03*
G01X99848Y10467D03*
G01X90561Y24592D03*
G01X92184Y17909D03*
G01X19965Y52465D03*
G01X30456Y31846D03*
G01X90508Y42757D03*
G01X90434Y32115D03*
G01X105914Y11765D03*
G01X88497Y10478D03*
G01X38364Y43315D03*
G01X37347Y17778D03*
G01X38011Y24594D03*
G01X28283Y49715D03*
G01X37989Y25690D03*
G01X34394Y32032D03*
G01X36269Y41342D03*
G01X53550Y17886D03*
G01X50884Y10457D03*
G01X53212Y24563D03*
G01X44693Y32044D03*
G01X56920Y32115D03*
G01X59891Y17886D03*
G01X58365Y10457D03*
G01X60583Y43288D03*
G01X111942Y18201D03*
G01X60409Y24488D03*
G01X59359Y25688D03*
G01X15184Y2969D03*
G01X14913Y5284D03*
G01X14996Y16451D03*
G01X13797Y30851D03*
G01X17020Y44086D03*
G01X24534Y2094D03*
G01X22496Y25819D03*
G01X24848Y18013D03*
G01X21174Y10465D03*
G01X23710Y3017D03*
G01X19034Y31990D03*
G01X17600Y41651D03*
G01X103266Y10465D03*
G01X4455Y44686D03*
G01X4350Y32850D03*
M00*
M02*
